<?xml version="1.0" encoding="UTF-8" standalone="no"?>
<svg
   viewBox="0 0 320 80"
   role="img"
   aria-labelledby="title desc"
   version="1.1"
   id="svg100"
   sodipodi:docname="sonomyo_logo_cz.svg"
   xml:space="preserve"
   inkscape:version="1.2.2 (b0a8486541, 2022-12-01)"
   xmlns:inkscape="http://www.inkscape.org/namespaces/inkscape"
   xmlns:sodipodi="http://sodipodi.sourceforge.net/DTD/sodipodi-0.dtd"
   xmlns="http://www.w3.org/2000/svg"
   xmlns:svg="http://www.w3.org/2000/svg"
   xmlns:rdf="http://www.w3.org/1999/02/22-rdf-syntax-ns#"
   xmlns:cc="http://creativecommons.org/ns#"
   xmlns:dc="http://purl.org/dc/elements/1.1/"><defs
     id="defs104"><rect
       x="333.06677"
       y="-69.534664"
       width="738.76179"
       height="363.00645"
       id="rect1791" /></defs><sodipodi:namedview
     id="namedview102"
     pagecolor="#ffffff"
     bordercolor="#000000"
     borderopacity="0.25"
     inkscape:showpageshadow="2"
     inkscape:pageopacity="0.0"
     inkscape:pagecheckerboard="0"
     inkscape:deskcolor="#d1d1d1"
     showgrid="false"
     inkscape:zoom="2.085965"
     inkscape:cx="203.02354"
     inkscape:cy="47.460048"
     inkscape:window-width="1920"
     inkscape:window-height="1131"
     inkscape:window-x="0"
     inkscape:window-y="0"
     inkscape:window-maximized="1"
     inkscape:current-layer="g98" /><title
     id="title">SonoMyo Logo</title><desc
     id="desc">Logo for SonoMyo, showing an ultrasound screen with a tongue curve and probe, plus the SonoMyo wordmark.</desc><!-- ICON: ultrasound screen + tongue + probe --><!-- WORDMARK --><g
     transform="translate(110,0)"
     id="g98"><text
       x="0"
       y="40"
       font-family="system-ui, '-apple-system', BlinkMacSystemFont, 'Segoe UI', sans-serif"
       font-size="28px"
       font-weight="600"
       letter-spacing="1"
       id="text94"><tspan
         fill="#1b3358"
         id="tspan90"
         style="fill:#3373b0;fill-opacity:1">Sono</tspan><tspan
         style="fill:#0b385f;fill-opacity:1"
         id="tspan1163">Myo</tspan></text><!-- Tagline (optional) --><text
       x="2"
       y="58"
       font-family="system-ui, '-apple-system', BlinkMacSystemFont, 'Segoe UI', sans-serif"
       font-size="11px"
       fill="#5b6b8c"
       id="text96">Myofunkční terapie s pomocí ultrazvuku</text><text
       xml:space="preserve"
       transform="translate(-110)"
       id="text1789"
       style="font-weight:bold;font-size:5.33333px;font-family:sans-serif;-inkscape-font-specification:'sans-serif Bold';text-align:center;white-space:pre;shape-inside:url(#rect1791);display:inline;fill:#0b385f;fill-opacity:1;stroke-width:5.29134" /><path
       fill="#7bc0df"
       opacity="1"
       stroke="none"
       d="m -80.778221,68.801181 c -0.02063,9.2e-5 -0.04125,1.98e-4 -0.09746,-0.04083 -0.168467,-0.04617 -0.301335,-0.05119 -0.434199,-0.05622 -0.05821,-0.0046 -0.116429,-0.0076 -0.217443,-0.06826 -0.188779,-0.07664 -0.334756,-0.09706 -0.480731,-0.117472 0,0 2.12e-4,0.01524 -0.03951,-0.01585 -0.189973,-0.04845 -0.340209,-0.06643 -0.490442,-0.08456 0,0 -0.0069,0.01798 -0.0406,-0.01371 -0.132947,-0.04937 -0.232135,-0.0675 -0.331322,-0.08563 0,0 0.0063,-0.0061 -0.01748,-0.03139 -0.1512,-0.04022 -0.278563,-0.05455 -0.405927,-0.06872 0,0 0.0066,-0.0046 -0.01534,-0.03047 -0.219344,-0.04251 -0.416735,-0.05973 -0.61413,-0.07694 -1.419287,-0.47612 -2.840138,-0.948217 -4.254156,-1.437943 -0.08871,-0.03078 -0.188802,-0.207961 -0.174559,-0.30232 0.241895,-1.602709 0.608509,-3.161827 1.640989,-4.515468 0.856708,-1.123176 2.030211,-1.6431 3.524999,-1.722573 1.372579,0.04403 2.668757,0.05775 3.964921,0.05698 0.08922,-6.1e-5 0.178377,-0.10833 0.267559,-0.166183 0.217347,-0.0076 0.450471,0.02925 0.649349,-0.0323 0.941997,-0.291501 1.920803,-0.533103 2.662691,-1.206062 0.668318,-0.606222 0.946954,-1.377805 0.933238,-2.248333 -0.0039,-0.249083 -6.34e-4,-0.498289 -7.4e-4,-0.839765 -8.48e-4,-0.834219 -0.0017,-1.576091 -0.0026,-2.317963 0,0 0.0021,0.0076 0.02745,-0.0076 0.04273,-0.05211 0.06017,-0.08989 0.07762,-0.127528 0.298058,-0.344707 0.645864,-0.661379 0.884154,-1.039727 0.55235,-0.877019 0.262609,-1.514659 -0.781835,-1.840594 -0.115784,-0.03611 -0.231701,-0.07192 -0.383532,-0.118996 0.414566,-0.338262 0.830004,-0.64084 1.199954,-0.986903 0.706102,-0.660525 0.73839,-1.302081 0.144931,-2.045644 -0.201659,-0.252649 -0.418384,-0.496217 -0.600009,-0.761222 -0.635561,-0.927328 -0.325643,-1.891895 0.746331,-2.342296 0.257142,-0.108025 0.528251,-0.186599 0.7844,-0.296499 1.199462,-0.514652 1.590814,-1.803188 0.782404,-2.784636 -0.495237,-0.601226 -1.132103,-1.096132 -1.674552,-1.665056 -1.07288,-1.125249 -2.148829,-2.249339 -3.177707,-3.41021 -0.988959,-1.115817 -1.334398,-2.458229 -1.429384,-3.89087 -0.199594,-3.010454 -1.109518,-5.779047 -3.17929,-8.148311 -1.103192,-1.262817 -3.024744,-2.666829 -4.41008,-3.129785 0.360195,0.948933 0.754916,1.869177 1.060514,2.815155 1.178543,3.648231 0.738993,7.168356 -1.012616,10.569744 -1.338836,2.59982 -3.36574,4.664692 -5.658626,6.529253 -2.766149,2.2494 -4.678543,5.045509 -5.840925,8.305535 -0.952919,2.672573 -1.284216,5.417047 -0.971949,8.221735 0.113979,1.023713 0.305965,2.039656 0.452477,3.111196 -0.0099,0.05211 -0.03256,0.0742 -0.03256,0.0742 -1.943383,-1.628016 -3.467226,-3.573451 -4.782726,-5.673657 -2.12422,-3.391332 -3.4338,-7.051539 -3.98549,-10.953303 -0.11861,-0.838791 -0.15417,-1.688094 -0.19099,-2.607545 0.0173,-0.951646 -0.002,-1.828283 -0.0222,-2.70492 0.0291,-2.057742 0.39391,-4.070751 0.97312,-6.04582 1.68839,-5.75732 5.03204,-10.478144 10.009059,-14.159728 4.039145,-2.987813 8.616903,-4.796136 13.674391,-5.529293 0.815236,-0.118234 1.644945,-0.147183 2.546866,-0.182485 0.971094,0.01524 1.863291,-0.0046 2.755488,-0.02392 2.105182,0.02605 4.162057,0.362914 6.186085,0.886388 4.906028,1.268866 9.139887,3.623793 12.671414,7.086827 1.461601,1.433266 2.695302,3.035365 3.790259,4.736593 0.178829,0.277849 0.06058,0.404539 -0.103314,0.59603 -1.64753,1.924926 -2.803435,4.080669 -3.223163,6.535713 -0.669869,3.918143 0.354571,7.441635 3.007675,10.503573 2.124342,2.451707 4.792485,4.259619 7.829432,5.586932 0.142895,0.06247 0.284199,0.12829 0.425239,0.194385 0.01337,0.0061 0.01955,0.02621 0.06874,0.09645 -1.50532,3.953034 -3.65158,7.587614 -6.757427,10.750081 -0.09821,0.08121 -0.128348,0.143069 -0.158476,0.205081 -0.612156,0.589036 -1.224313,1.178088 -1.894036,1.781355 -0.07735,0.04754 -0.09713,0.0809 -0.116912,0.114425 -1.674426,1.495582 -3.535458,2.747948 -5.537403,3.820387 -3.26625,1.749724 -6.753495,2.912393 -10.458623,3.456619 -1.121485,0.164736 -2.270616,0.16117 -3.479552,0.207336 -0.192451,-0.04281 -0.311995,-0.06719 -0.432478,-0.07252 -1.588708,-0.06948 -3.177455,-0.138193 -4.766424,-0.202064 -0.35384,-0.01371 -0.708562,-0.0091 -1.062877,-0.01219 m 20.8284,-22.646224 c 0.65132,0.744508 1.280031,1.508016 1.958473,2.22973 1.619791,1.723076 3.524082,3.115798 5.664497,4.213393 0.787197,0.403656 1.654324,0.156309 2.003397,-0.513068 0.34209,-0.655985 0.04597,-1.272401 -0.755395,-1.719816 -0.579313,-0.323421 -1.132591,-0.693801 -1.670177,-1.077437 -0.61753,-0.440695 -1.233779,-0.889892 -1.798591,-1.38809 -0.814448,-0.718393 -1.631541,-1.444099 -2.355591,-2.241309 -0.708397,-0.779963 -1.326288,-1.637677 -1.937181,-2.49117 -0.453001,-0.632917 -0.923271,-1.280385 -1.208483,-1.985522 -0.173288,-0.42843 -0.393517,-0.74658 -0.733697,-1.033007 -0.473681,-0.398826 -1.258279,-0.386592 -1.693843,0.03382 -0.509987,0.492316 -0.618862,1.191268 -0.151931,1.938213 0.841273,1.345779 1.752442,2.652508 2.678522,4.034199 m -3.789946,5.890637 c 0.691379,0.642014 1.346711,1.324235 2.083854,1.915191 0.804622,0.645061 1.672767,1.222076 2.536875,1.796973 0.5364,0.356865 1.260451,0.339099 1.687795,0.02697 0.804295,-0.587299 0.727585,-1.49895 -0.138915,-2.090607 -0.80788,-0.551631 -1.622199,-1.104572 -2.362928,-1.731669 -0.750936,-0.635736 -1.429352,-1.350716 -2.112863,-2.054162 -0.51521,-0.530224 -1.002652,-1.086274 -1.476488,-1.650322 -0.55204,-0.657143 -1.060487,-1.347227 -1.618045,-1.999936 -0.295905,-0.346413 -0.752589,-0.508344 -1.178409,-0.332319 -1.096189,0.453174 -1.342775,1.327434 -0.719012,2.128865 1.043202,1.34034 2.160868,2.628876 3.298136,3.990957 z"
       id="path2655"
       style="stroke-width:0.103005;fill:#3373b0;fill-opacity:1" /><path
       fill="#2d6a94"
       opacity="1"
       stroke="none"
       d="m -30.126896,16.120685 c 0.126844,0.111073 0.253684,0.221994 0.393682,0.396785 0.08458,0.111072 0.156001,0.15829 0.227423,0.205553 0,0 -0.0083,0.003 -0.008,0.02407 0.0362,0.03824 0.07206,0.05531 0.107934,0.07237 0.13213,0.116253 0.264255,0.232491 0.39045,0.390949 0.02137,0.04845 0.04871,0.05485 0.07603,0.0611 0,0 3.17e-4,0.0163 -0.0074,0.04967 0.03049,0.04799 0.06869,0.06247 0.106902,0.0771 0,0 -0.0139,0.0076 -0.01146,0.03215 0.04067,0.03931 0.07897,0.05409 0.117274,0.06902 0,0 -0.01467,0.0076 -0.01189,0.03169 0.04107,0.03885 0.07935,0.05379 0.117647,0.06856 0,0 -0.01418,0.0076 -0.0116,0.03215 0.0407,0.03992 0.07879,0.05576 0.116902,0.07161 0,0 -0.01713,0.0076 -0.01289,0.02986 0.04229,0.03855 0.08031,0.05424 0.118349,0.07009 0,0 -0.01658,0.0061 -0.01232,0.02986 0.04199,0.03977 0.07977,0.05637 0.117532,0.07313 0,0 -0.01832,0.0061 -0.01304,0.02819 0.04303,0.03885 0.08081,0.05546 0.118577,0.07207 0,0 -0.01825,0.0061 -0.01289,0.02803 0.04309,0.03916 0.08076,0.05592 0.118435,0.07283 0,0 -0.01852,0.0061 -0.01289,0.02758 0.04316,0.03916 0.08071,0.05622 0.118263,0.07329 0,0 -0.01865,0.0046 -0.01289,0.02727 0.04312,0.03946 0.0805,0.05698 0.117862,0.07451 0,0 -0.01897,0.0046 -0.01275,0.02666 0.04315,0.03946 0.08011,0.05744 0.117074,0.07542 0,0 -0.01904,0.0046 -0.01218,0.02575 0.04355,0.03931 0.08024,0.05744 0.11693,0.07557 0,0 -0.019,0.0046 -0.01175,0.02529 0.04384,0.03931 0.08046,0.05744 0.117059,0.07557 0,0 -0.019,0.0046 -0.0116,0.02499 0.04361,0.03961 0.07984,0.0582 0.116071,0.07694 0,0 -0.01913,0.003 -0.01118,0.02423 0.0442,0.03916 0.08037,0.05775 0.116558,0.07618 0,0 -0.01878,0.003 -0.01103,0.02407 0.04314,0.03992 0.07852,0.05942 0.113893,0.07877 0,0 -0.01821,0.003 -0.0095,0.02316 0.0442,0.03931 0.07968,0.05805 0.115168,0.07694 0,0 -0.01804,0.003 -0.0095,0.02316 0.04388,0.03961 0.07915,0.05866 0.114423,0.0777 0,0 -0.01765,0.003 -0.0089,0.02301 0.04362,0.03961 0.07852,0.05896 0.113406,0.07816 0,0 -0.01731,0.0046 -0.0066,0.02468 0.04838,0.03916 0.086,0.05775 0.123635,0.07633 0.03146,-0.003 0.05511,0.0091 0.08329,0.08395 0.04629,0.07252 0.08024,0.09599 0.114208,0.119301 0,0 -0.01721,0.0012 -0.0054,0.02148 0.04811,0.039 0.08451,0.05775 0.120913,0.07664 0.405257,0.379156 0.810505,0.758296 1.230858,1.201948 0.06434,0.09782 0.113593,0.131184 0.162833,0.164445 0,0 -0.0027,0.01219 -0.0092,0.04099 0.03138,0.04175 0.06923,0.05455 0.107089,0.06734 0,0 0.01275,-0.01219 0.0046,0.0076 0.01549,0.01981 0.03928,0.02042 0.06306,0.02103 0.09793,0.08273 0.195872,0.165634 0.287697,0.289917 0.02089,0.04678 0.04788,0.05211 0.07487,0.05744 0,0 0.0013,0.01676 -0.0066,0.0515 0.03037,0.04921 0.06862,0.06354 0.106859,0.07801 0,0 -0.01375,0.0076 -0.01146,0.03245 0.04054,0.03885 0.07874,0.05348 0.11693,0.06826 0,0 -0.01375,0.0076 -0.01117,0.0323 0.0406,0.03961 0.07869,0.05516 0.116773,0.0707 0,0 -0.01607,0.0076 -0.01246,0.03063 0.0415,0.03946 0.07935,0.05592 0.117203,0.07237 0,0 -0.01789,0.0061 -0.01304,0.02864 0.04281,0.03885 0.08071,0.05515 0.118635,0.07146 0,0 -0.01731,0.0061 -0.01261,0.02895 0.04208,0.03992 0.07951,0.05729 0.116959,0.07466 0,0 -0.01888,0.0061 -0.01289,0.02712 0.04348,0.03885 0.08097,0.05576 0.118478,0.07283 0,0 -0.01831,0.0061 -0.01261,0.02743 0.04279,0.03977 0.07987,0.05775 0.11693,0.07557 0,0 -0.01937,0.0046 -0.01246,0.0259 0.04391,0.039 0.08097,0.05683 0.118033,0.07451 0,0 -0.01599,-0.003 -0.01852,0.02819 0.178442,0.178295 0.359423,0.325341 0.540405,0.472387 0,0 -0.01375,0.0076 -0.0069,0.0288 0.04209,0.04083 0.0773,0.05988 0.112518,0.07892 0,0 -0.01774,0.003 -0.0089,0.02301 0.04412,0.03946 0.07939,0.05836 0.114667,0.07725 0,-1.6e-5 -0.01768,0.003 -0.0087,0.02301 0.04418,0.03931 0.07948,0.0582 0.114767,0.0771 0,0 -0.01759,0.003 -0.0089,0.02301 0.04367,0.03977 0.07862,0.05897 0.113579,0.07816 0,0 -0.01715,0.003 -0.0083,0.0227 0.04341,0.03977 0.07798,0.05912 0.112533,0.07847 0,0 -0.01646,0.0015 -0.0073,0.0224 0.04354,0.03977 0.07792,0.05897 0.112303,0.07831 0,0 -0.01612,0.0015 -0.0067,0.02225 0.04375,0.03961 0.07812,0.05881 0.112489,0.07786 0,0 -0.01625,0.003 -0.0057,0.02346 0.04653,0.03946 0.0825,0.05851 0.118492,0.0774 0.476586,0.445449 0.953173,0.890898 1.444636,1.400873 0.06407,0.09721 0.113277,0.129966 0.162479,0.162724 0,0 -0.0014,0.01219 -0.0083,0.04266 0.031,0.04312 0.06888,0.05561 0.106773,0.06795 0,0 -0.0095,0.0227 -0.0086,0.0422 0.0386,0.03261 0.07644,0.04556 0.114309,0.05866 0,0 0.01289,-0.01219 0.0047,0.0076 0.01559,0.01981 0.0394,0.02042 0.06321,0.02087 0.610547,0.614968 1.289049,1.182278 1.816745,1.855327 0.94599,1.206565 0.861845,2.558362 0.331163,3.953065 -0.154643,0.23243 -0.243534,0.431782 -0.332418,0.631119 0,0 -0.0046,-0.01371 -0.03026,-0.003 -0.0462,0.07115 -0.06676,0.131641 -0.08733,0.192191 0,0 -0.003,-0.0076 -0.02665,0.003 -0.04006,0.04403 -0.0564,0.07771 -0.07275,0.111225 0,0 -0.0014,-0.01676 -0.02372,-0.0076 -0.03738,0.0454 -0.05245,0.08121 -0.06753,0.117015 6e-6,0 -0.0017,-0.01859 -0.02907,-0.0091 -0.05086,0.07085 -0.07444,0.132556 -0.09802,0.194248 0.0032,0.0323 -0.009,0.05805 -0.08961,0.09157 -0.0752,0.04693 -0.0976,0.07953 -0.119996,0.111987 0,0 -6.36e-4,-0.016 -0.02218,-0.0061 -0.04172,0.04205 -0.06185,0.07481 -0.08199,0.107568 0,0 -0.002,-0.01554 -0.02379,-0.0061 -0.04185,0.04144 -0.06196,0.0742 -0.08206,0.106959 0,0 -0.0021,-0.01539 -0.0238,-0.0076 -0.04233,0.04068 -0.06295,0.07283 -0.08356,0.10513 0,0 -0.002,-0.01524 -0.02354,-0.0061 -0.04199,0.04114 -0.06239,0.07313 -0.08281,0.105283 0,0 -0.0017,-0.01371 -0.02328,-0.0061 -0.04216,0.04083 -0.06275,0.07268 -0.08332,0.104369 0,0 -0.0021,-0.01371 -0.02387,-0.0046 -0.04189,0.04297 -0.06213,0.07588 -0.08236,0.108787 -0.316301,0.256504 -0.632613,0.512992 -0.852076,0.690953 0.967313,1.423758 1.851257,2.724803 2.712946,4.080532 0.145404,0.338033 0.313069,0.621383 0.480725,0.904733 0,0 -0.0093,0.0015 -0.0093,0.03063 0.03696,0.07755 0.074,0.126613 0.111043,0.175674 0,0 -0.0093,-7.92e-4 -0.0097,0.03641 0.313636,0.847826 0.627692,1.658444 0.941757,2.469062 0.183361,0.738154 0.366714,1.476309 0.543676,2.293722 0.0095,0.354093 0.0307,0.628773 0.04028,0.903819 0.03334,0.956415 0.105527,1.913957 0.0812,2.869198 -0.02354,0.924175 -0.147977,1.846064 -0.228107,2.768944 5e-6,0 0.0023,0.0422 -0.03418,0.08563 -0.04732,0.165405 -0.05825,0.287357 -0.06918,0.409308 0,0 -0.0017,-0.0091 -0.0392,-0.003 -0.07997,0.05378 -0.144744,0.09568 -0.161729,0.15084 -0.317755,1.032489 -0.63143,2.066107 -0.942039,3.100531 -0.08518,0.283701 -0.157541,0.570829 -0.235782,0.856404 6e-6,0 -0.0027,-0.0076 -0.02914,0.0061 -0.04226,0.07527 -0.05808,0.136975 -0.07388,0.198606 0,0 -0.0024,-0.01067 -0.03318,-8.08e-4 -0.291201,0.541393 -0.551733,1.073171 -0.812269,1.604949 7e-6,0 -0.0037,-0.01219 -0.0294,5.94e-4 -0.04526,0.07344 -0.06485,0.134385 -0.08445,0.195391 0.0042,0.03382 -0.0085,0.06064 -0.0907,0.09614 -0.07411,0.0483 -0.09521,0.08106 -0.116314,0.113815 0,0 0.0014,-0.01219 -0.03602,-0.01584 -0.657115,0.06597 -1.276786,0.134841 -1.896462,0.203923 0,0 0.01118,-0.003 4.24e-4,-0.02529 -0.04851,-0.03581 -0.08624,-0.04906 -0.123979,-0.06216 0,0 0.01804,-0.0011 0.01103,-0.02468 -0.04486,-0.03702 -0.08269,-0.05058 -0.120527,-0.06415 0,0 0.02827,-0.02224 0.01708,-0.04098 -0.04911,-0.03154 -0.08703,-0.04434 -0.124967,-0.05698 0,0 -0.0116,0.0046 7.4e-4,-0.03017 -0.05477,-0.08944 -0.121844,-0.143679 -0.188933,-0.197905 0,0 0.0095,-0.003 0.01175,-0.03855 0.03547,-0.586613 0.06858,-1.137224 0.101702,-1.687834 0,0 0.0033,0.01067 0.02907,-0.003 0.04338,-0.07405 0.06092,-0.135299 0.07846,-0.196397 0,0 0.0026,0.0091 0.02619,-0.0015 0.03477,-0.04617 0.04593,-0.08167 0.05709,-0.117168 0,0 -0.0072,0.01569 0.02499,0.0061 0.0449,-0.07405 0.05769,-0.138041 0.07049,-0.20211 0,0 0.01519,0.01966 0.04369,0.0046 0.05104,-0.106197 0.07359,-0.197768 0.09613,-0.289353 0,0 0.0027,0.0076 0.02907,-0.0046 0.04331,-0.0739 0.06026,-0.134689 0.0772,-0.195436 0,0 0.0026,0.0091 0.02894,-0.0046 0.04229,-0.07527 0.05828,-0.136823 0.07428,-0.198316 0,0 0.0023,0.01067 0.03319,3.96e-4 0.364151,-0.874885 0.697423,-1.739714 1.030687,-2.604574 0.158561,-0.726148 0.325294,-1.450849 0.471007,-2.179297 0.04735,-0.236742 0.03977,-0.483297 0.107661,-0.778592 0.494956,-0.882473 0.174775,-1.768815 0.219038,-2.622811 0.03657,-0.70561 -0.181629,-1.439986 -0.385033,-2.135981 -0.347798,-1.190064 -0.769805,-2.360838 -1.172849,-3.53597 -0.01835,-0.05348 -0.156336,-0.07039 -0.2386,-0.104217 0,0 6.34e-4,-0.01219 0.01693,-0.04997 -0.02977,-0.08167 -0.0759,-0.12509 -0.122016,-0.168422 0,0 0.0052,-0.0091 0.01898,-0.03961 -0.03195,-0.07481 -0.07768,-0.1193 -0.12342,-0.163745 0,0 0.01593,-0.01219 0.01814,-0.03154 -0.02749,-0.04342 -0.05719,-0.06704 -0.08689,-0.0905 0,0 0.0082,-3e-5 0.0046,-0.02864 -0.04076,-0.07633 -0.07785,-0.124024 -0.114925,-0.171652 0,0 0.01017,7.01e-4 0.0083,-0.02773 -0.04097,-0.07603 -0.08015,-0.123567 -0.119322,-0.171241 0,0 0.01246,3.96e-4 0.01404,-0.03398 -0.08746,-0.218977 0.04725,-0.551647 -0.361324,-0.524648 0,0 0.003,-0.0061 0.01659,-0.0451 -0.0644,-0.119452 -0.142374,-0.200007 -0.220355,-0.280577 0,0 0.01772,-0.0091 0.01582,-0.02956 -0.0342,-0.0422 -0.0665,-0.0643 -0.09878,-0.08639 0,0 0.01117,-4.6e-5 0.0106,-0.02925 -0.04617,-0.07298 -0.09177,-0.11671 -0.137388,-0.160438 0,0 0.01673,-0.0015 0.02322,-0.03428 -0.07488,-0.105283 -0.156253,-0.178067 -0.237625,-0.250927 0,0 0.0095,-0.01524 0.01715,-0.04205 -0.06059,-0.08014 -0.128936,-0.132861 -0.197269,-0.185579 0,0 0.0085,-0.0015 0.0076,-0.03626 -0.07915,-0.110159 -0.157371,-0.185883 -0.235594,-0.261608 -0.0361,-0.0015 -0.06152,-0.01874 -0.08202,-0.106197 -0.05099,-0.09934 -0.0962,-0.14246 -0.141428,-0.18564 0,0 0.01898,0.0015 0.01996,-0.02758 -0.07329,-0.07999 -0.14755,-0.130423 -0.221804,-0.180855 -0.03603,-0.0013 -0.06119,-0.01752 -0.08093,-0.105436 -0.05384,-0.09462 -0.102275,-0.132708 -0.150693,-0.170753 0,0 0.01275,-0.02377 0.0099,-0.04906 -0.0468,-0.04281 -0.09076,-0.06049 -0.134709,-0.07816 0,0 -0.03657,0.01859 -0.03657,0.01859 0,0 -0.04076,-0.0076 -0.09057,-0.003 -0.07239,0.03596 -0.09497,0.06765 -0.117561,0.09919 0,0 -0.002,-0.01524 -0.02292,-0.0046 -0.04165,0.04281 -0.06235,0.07527 -0.08305,0.107568 -0.825833,0.754976 -1.651668,1.509951 -2.525932,2.258786 -0.07448,0.03809 -0.100512,0.08228 -0.126557,0.126614 0,0 -0.002,-0.0046 -0.03657,-0.001 -0.106587,0.08212 -0.178666,0.160636 -0.250747,0.23921 0,0 -0.01261,-0.01371 -0.03665,-0.01219 -0.04331,0.0352 -0.06251,0.07024 -0.0817,0.105131 0,0 0.0017,-0.01554 -0.02988,-0.01737 -0.0864,0.06354 -0.141228,0.129052 -0.196071,0.194431 0,0 -0.002,-0.0091 -0.03728,-0.0076 -0.117002,0.06978 -0.198703,0.13926 -0.280404,0.208768 0,0 -0.0019,-0.0076 -0.03268,-0.0061 -0.08007,0.04068 -0.129294,0.07893 -0.178532,0.11732 0,0 -7.7e-5,-0.01371 -0.03567,-0.01569 -0.4687,0.128899 -0.894599,0.341629 -1.336253,0.376657 -1.362839,0.108178 -2.730978,0.176559 -4.0984,0.207382 -1.45597,0.03276 -2.851214,0.335763 -4.223484,0.751912 -0.34977,0.106045 -0.659101,0.33139 -0.987012,0.501931 0,0 -0.01089,-0.0091 -0.04506,-0.01996 -0.402373,0.189189 -0.770615,0.389684 -1.13885,0.590179 0,0 -0.0017,-0.0076 -0.03251,-0.0061 -0.07999,0.04083 -0.129201,0.07877 -0.178415,0.11671 0,0 1.06e-4,-0.01219 -0.03366,-0.01554 -0.144233,0.07755 -0.254661,0.157833 -0.365094,0.238083 0,0 -0.01446,-0.032 -0.04211,-0.02941 -0.153252,0.104369 -0.278847,0.20627 -0.404433,0.308109 0,0 -8.48e-4,-0.01219 -0.03147,-0.01371 -0.07441,0.04449 -0.118225,0.08974 -0.162032,0.134994 0,0 -0.0014,-0.01539 -0.03429,-0.02011 -0.09278,0.06369 -0.152619,0.131946 -0.212461,0.200373 -0.786694,0.620088 -1.573387,1.24016 -2.406461,1.853148 -0.05705,0.01905 -0.06771,0.04525 -0.07838,0.07146 0,0 -0.01759,-0.003 -0.04772,-0.0091 -0.0489,0.02941 -0.06767,0.0646 -0.08645,0.0998 0,0 0.0018,-0.01554 -0.03021,-0.01737 -0.08593,0.06491 -0.13981,0.131642 -0.193686,0.198347 0,0 -0.0023,-0.0091 -0.0399,-0.01067 -0.610779,0.09706 -1.18183,0.256245 -1.757794,0.274132 -0.395041,0.01219 -0.796908,-0.171987 -1.195725,-0.268403 0,0 0.0095,-0.0015 0.0084,-0.03443 -0.08199,-0.06643 -0.162796,-0.100407 -0.243598,-0.134537 0,0 0.0037,-0.01219 0.0066,-0.03992 -0.03519,-0.04144 -0.07328,-0.05546 -0.111365,-0.06933 0,1.5e-5 0.01334,-0.01067 0.01039,-0.03428 -0.04104,-0.03779 -0.07914,-0.0515 -0.117222,-0.06521 0,0 0.0114,-0.0091 0.0099,-0.03428 -0.0396,-0.03824 -0.07767,-0.05211 -0.115728,-0.06597 0,0 0.01163,-0.01067 0.01,-0.03428 -0.03972,-0.03824 -0.07776,-0.05196 -0.115805,-0.06567 0,0 0.01195,-0.01067 0.01006,-0.03474 -0.03992,-0.03779 -0.07796,-0.0515 -0.116,-0.06521 0,0 0.01056,-0.01067 0.0093,-0.0355 -0.0394,-0.0387 -0.07756,-0.05333 -0.115721,-0.0678 0,0 0.01375,-0.0091 0.01138,-0.03245 -0.0405,-0.03916 -0.07862,-0.05439 -0.116743,-0.06963 0,0 0.01544,-0.0076 0.01208,-0.03108 -0.04133,-0.03931 -0.07931,-0.05515 -0.11728,-0.071 0,0 0.01643,-0.0076 0.01235,-0.03017 -0.04199,-0.03931 -0.07989,-0.05546 -0.117791,-0.07176 0,0 0.01771,-0.0061 0.01288,-0.0288 -0.04273,-0.03885 -0.08062,-0.05515 -0.118515,-0.07146 0,0 0.01777,-0.0061 0.01277,-0.02864 -0.04289,-0.039 -0.08077,-0.05531 -0.118657,-0.07161 0,0 0.01773,-0.0061 0.01274,-0.02864 -0.04279,-0.03916 -0.0806,-0.05561 -0.118412,-0.07222 0,0 0.01808,-0.0061 0.01286,-0.02834 -0.04296,-0.03901 -0.08069,-0.05577 -0.118425,-0.07252 0,0 0.01814,-0.0061 0.01284,-0.02819 -0.04264,-0.03961 -0.07998,-0.05714 -0.117319,-0.07481 0,0 0.01925,-0.0046 0.01289,-0.02666 -0.04365,-0.03901 -0.08093,-0.05653 -0.11821,-0.07405 0,0 0.01931,-0.0046 0.01268,-0.02621 -0.04375,-0.03916 -0.08088,-0.05698 -0.118005,-0.07466 0,0 0.01944,-0.0046 0.01251,-0.02575 -0.04407,-0.03901 -0.08121,-0.05668 -0.118347,-0.07435 0,0 0.01927,-0.0046 0.01245,-0.0259 -0.04383,-0.03931 -0.08082,-0.05729 -0.117816,-0.07527 0,0 0.01958,-0.0046 0.01238,-0.02545 -0.04418,-0.039 -0.08116,-0.05683 -0.118147,-0.07481 0,0 0.01609,0.003 0.01839,-0.02743 -0.283354,-0.279541 -0.569002,-0.528198 -0.85465,-0.776855 0,0 0.01331,-0.0061 0.0054,-0.02697 -0.04239,-0.04083 -0.07682,-0.06034 -0.111254,-0.07984 0,0 0.01662,-0.0015 0.0071,-0.02209 -0.04341,-0.03977 -0.07735,-0.05957 -0.111275,-0.07923 0,0 0.0161,-0.003 0.0049,-0.02285 -0.04711,-0.03916 -0.08302,-0.05805 -0.118929,-0.07709 -0.05717,-0.04342 -0.114339,-0.08685 -0.19068,-0.184055 -0.05387,-0.07496 -0.08856,-0.09629 -0.123261,-0.117625 -0.54828,-0.513053 -1.09656,-1.026105 -1.66132,-1.603714 -0.08628,-0.111073 -0.156085,-0.157468 -0.225883,-0.203923 -0.03725,-0.003 -0.06591,-0.01859 -0.09611,-0.105131 -0.05926,-0.09127 -0.108377,-0.125852 -0.157501,-0.160301 0,0 0.0096,-0.01371 0.01287,-0.03794 -0.03487,-0.0387 -0.07301,-0.05302 -0.111158,-0.06719 0,0 0.01273,-0.0076 0.01071,-0.03291 -0.04016,-0.03885 -0.07831,-0.05302 -0.116458,-0.06734 0,0 0.01209,-0.0091 0.0103,-0.03337 -0.03995,-0.03961 -0.07811,-0.0547 -0.11627,-0.06978 0,0 0.01535,-0.0076 0.01217,-0.03124 -0.04133,-0.03885 -0.07946,-0.05409 -0.117603,-0.06932 0,0 0.01538,-0.0076 0.01195,-0.03093 -0.04152,-0.03916 -0.07961,-0.05485 -0.117701,-0.07039 0,0 0.01611,-0.0076 0.01234,-0.03047 -0.0417,-0.03946 -0.07963,-0.05577 -0.117563,-0.07192 0,0 0.01761,-0.0061 0.01291,-0.02895 -0.04264,-0.03885 -0.08058,-0.055 -0.11852,-0.07131 0,0 0.01735,-0.0061 0.0127,-0.02895 -0.04233,-0.03961 -0.08,-0.05637 -0.11768,-0.07329 0,0 0.0183,-0.0061 0.01285,-0.02788 -0.04314,-0.03885 -0.08083,-0.05561 -0.118528,-0.07237 0,0 0.01816,-0.0061 0.01266,-0.02788 -0.04317,-0.03916 -0.08085,-0.05592 -0.118521,-0.07268 0,0 0.01851,-0.0061 0.01285,-0.02758 -0.04331,-0.03885 -0.08097,-0.05577 -0.118624,-0.07253 0,0 0.01819,-0.0061 0.01276,-0.02773 -0.04283,-0.03961 -0.08022,-0.05714 -0.117603,-0.07466 0,0 0.01905,-0.0046 0.01279,-0.02666 -0.04367,-0.03885 -0.08109,-0.05622 -0.118508,-0.07344 0,0 0.01549,0.003 0.0183,-0.02849 -0.10541,-0.114578 -0.213625,-0.196762 -0.321847,-0.278978 0,0 0.01006,-0.003 0.01158,-0.03321 -0.04736,-0.06856 -0.09624,-0.106959 -0.145118,-0.145354 0.01688,-0.0076 0.03375,-0.01371 0.03997,-0.05089 -0.07567,-0.267854 -0.194979,-0.506272 -0.194915,-0.744675 1.06e-4,-0.586721 0.0552,-1.173441 0.08817,-1.760161 -7e-6,0 0.0031,0.01066 0.02703,5.02e-4 0.03821,-0.04556 0.05247,-0.08121 0.06673,-0.116862 0,0 0.0024,0.01935 0.02836,0.0091 0.04899,-0.07192 0.07201,-0.133623 0.09502,-0.195482 -0.0028,-0.03215 0.0095,-0.0579 0.08961,-0.09172 0.07527,-0.04708 0.09779,-0.07953 0.120318,-0.111987 0,0 5.29e-4,0.01585 0.02207,0.0061 0.04172,-0.04205 0.06196,-0.07466 0.0822,-0.107111 0,0 0.002,0.01539 0.0236,0.0061 0.04193,-0.04144 0.06224,-0.0739 0.08255,-0.10635 0,0 0.0031,0.01539 0.02463,0.0061 0.04182,-0.04358 0.06209,-0.07725 0.08237,-0.11092 0.116012,-0.118996 0.232018,-0.238037 0.406884,-0.378516 0.08085,-0.05302 0.102849,-0.08456 0.12485,-0.116101 -0.0011,-0.03261 0.01313,-0.05744 0.09428,-0.08959 0.07359,-0.04723 0.09545,-0.07923 0.117299,-0.111226 -3.18e-4,-0.0323 0.01407,-0.05683 0.09506,-0.08822 0.07315,-0.04647 0.09453,-0.07847 0.115928,-0.110616 0,0 8.48e-4,0.01524 0.0225,0.0046 0.04186,-0.0416 0.06209,-0.07374 0.08234,-0.105892 0,0 0.0017,0.01524 0.02341,0.0046 0.04173,-0.0419 0.0617,-0.07451 0.08166,-0.107112 0,0 -9.54e-4,0.01371 0.03212,0.01371 0.111454,-0.107416 0.189813,-0.215015 0.268179,-0.322568 0,0 0.0092,0.01371 0.03305,0.0076 0.04027,-0.04114 0.05673,-0.07694 0.07318,-0.112749 0,0 0.0039,0.01676 0.02858,0.01067 0.03988,-0.04144 0.05506,-0.07755 0.07025,-0.113511 -6e-6,0 0.0016,0.01661 0.03102,0.0091 0.05375,-0.06826 0.07813,-0.129204 0.102499,-0.190287 -0.0016,-0.03291 0.01195,-0.05866 0.103877,-0.08243 0.149101,-0.142003 0.234973,-0.278749 0.320851,-0.415495 -0.0037,-0.0323 0.0076,-0.05896 0.09644,-0.08654 0.114629,-0.108026 0.166656,-0.209469 0.218682,-0.310852 0,0 0.0036,0.0076 0.03759,0.0061 0.06888,-0.07847 0.103779,-0.154588 0.138679,-0.230754 0,0 0.01292,0.0091 0.04186,0.0061 0.05032,-0.06506 0.07169,-0.126918 0.09306,-0.188702 0,0 0.0037,0.01219 0.02734,0.003 0.03724,-0.04541 0.05084,-0.08121 0.06444,-0.117015 6e-6,0 -0.0018,0.01813 0.02691,0.0091 0.0501,-0.07131 0.07147,-0.133165 0.09284,-0.194964 6e-6,0 0.0039,0.01219 0.02731,0.003 0.03701,-0.0451 0.05057,-0.08075 0.06414,-0.116254 0,0 -0.0118,0.01219 0.01947,0.0091 0.06095,-0.09355 0.09064,-0.183887 0.120318,-0.274223 0.419014,-0.845525 0.83804,-1.69105 1.306953,-2.579068 0.370544,-0.641587 0.652829,-1.250385 0.589483,-1.946776 0.194688,-1.631034 0.358266,-3.27837 1.232789,-4.739473 0.296621,-0.495592 0.769561,-0.902935 1.192492,-1.323092 0.430535,-0.427699 0.892374,-0.828018 1.3525,-1.228002 0.333873,-0.290221 0.687749,-0.559828 1.031766,-0.839674 0.133229,-0.10833 0.267306,-0.216142 0.395092,-0.330125 0.633699,-0.565192 1.266616,-1.131191 1.897573,-1.699125 0.848042,-0.763355 1.694041,-1.528752 2.591891,-2.325536 0.08452,-0.06902 0.118091,-0.10574 0.151643,-0.142307 0,0 0.0016,0.01219 0.03263,0.01371 0.117074,-0.06841 0.203133,-0.138803 0.289197,-0.209134 0,0 2.12e-4,0.01067 0.03685,0.01219 1.105579,-0.416851 2.229375,-0.519284 3.371543,-0.515932 0,0 0.01918,-0.03184 0.02052,0.01067 0.422492,0.153582 0.843652,0.264305 1.264805,0.375042 0,0 0.0085,-0.01219 0.0033,0.02666 0.202835,0.126309 0.410868,0.214162 0.6189,0.302106 0,0 -0.0086,0.003 -0.0064,0.03535 0.08215,0.06811 0.162065,0.104369 0.241982,0.140631 0,0 -0.01361,0.01067 -0.0082,0.03641 0.06932,0.05013 0.133277,0.07512 0.19723,0.100255 0.198438,0.178143 0.39687,0.356286 0.589787,0.577548 0.02249,0.05257 0.05049,0.06186 0.07848,0.07131 0,0 -0.0032,0.01569 -0.0092,0.04479 0.03106,0.04693 0.06824,0.06475 0.105426,0.08258 0,0 -0.01922,0.0061 -0.01304,0.02682 0.04342,0.03885 0.08068,0.05637 0.117961,0.0739 0,0 -0.01894,0.0046 -0.01246,0.02621 0.04332,0.03946 0.08023,0.05744 0.117131,0.07557 0,0 -0.01842,0.0046 -0.01361,0.0323 0.111515,0.107263 0.218287,0.187102 0.325054,0.266879 0,0 -0.01361,0.0076 -0.0076,0.02895 0.04072,0.0416 0.07538,0.06125 0.11004,0.08091 0,0 -0.01668,0.0015 -0.0074,0.02285 0.0443,0.03916 0.07934,0.0579 0.11438,0.07664 0,0 -0.01718,0.0015 -0.0082,0.0227 0.04405,0.03946 0.07907,0.05851 0.11408,0.0774 0,0 -0.01712,0.003 -0.0083,0.02285 0.04354,0.03977 0.07819,0.05897 0.112861,0.07832 0,0 -0.01657,0.0015 -0.0076,0.02255 0.04342,0.03977 0.07782,0.05912 0.112217,0.07847 0,0 -0.01609,0.0015 -0.0067,0.0224 0.04382,0.03946 0.07828,0.05851 0.112733,0.07755 0,0 -0.01593,0.0015 -0.0069,0.02255 0.04301,0.04007 0.077,0.05942 0.111013,0.07892 0,0 -0.01517,0.0015 -0.0056,0.02209 0.04306,0.03992 0.07654,0.05942 0.110025,0.07908 0,0 -0.0148,0.0015 -0.004,0.0224 0.0456,0.03961 0.08037,0.05866 0.115125,0.07786 z"
       id="path2657"
       style="stroke-width:0.103005;fill:#0b385f;fill-opacity:1" /><path
       fill="#155182"
       opacity="1"
       stroke="none"
       d="m -20.444455,40.246798 c 0.0697,7.6e-5 0.207689,0.01691 0.226038,0.07039 0.403043,1.175132 0.825052,2.345922 1.17285,3.53597 0.203403,0.695996 0.421606,1.430371 0.385032,2.135996 -0.04427,0.853981 0.275919,1.740324 -0.206933,2.578718 -0.06772,-1.152004 -0.0396,-2.317659 -0.140354,-3.473258 -0.146762,-1.68305 -0.69826,-3.275551 -1.436632,-4.847833 z"
       id="path2659"
       style="stroke-width:0.103005" /><path
       fill="#155182"
       opacity="1"
       stroke="none"
       d="m -37.926342,41.603882 c 0.288029,-0.163851 0.597358,-0.389166 0.94713,-0.495241 1.37227,-0.41615 2.767512,-0.719109 4.223482,-0.751913 1.367423,-0.03078 2.735563,-0.09934 4.098401,-0.207382 0.441655,-0.03504 0.867554,-0.247727 1.342965,-0.37492 -0.694246,0.463687 -1.519073,0.68143 -2.386167,0.688393 -1.956324,0.01569 -3.920372,-0.06506 -5.835002,0.41487 -0.795007,0.199275 -1.567942,0.477293 -2.390809,0.726193 z"
       id="path2661"
       style="stroke-width:0.103005" /><path
       fill="#155182"
       opacity="1"
       stroke="none"
       d="m -16.023724,50.580394 c 0.04574,-0.900314 0.170185,-1.822203 0.193719,-2.746378 0.02433,-0.955241 -0.04786,-1.912784 -0.0812,-2.869198 -0.0096,-0.275046 -0.03082,-0.549712 -0.04473,-0.864997 0.104968,0.600677 0.263361,1.238972 0.29991,1.883454 0.08703,1.534572 0.0042,3.064512 -0.367712,4.597119 z"
       id="path2663"
       style="stroke-width:0.103005" /><path
       fill="#63b5da"
       opacity="1"
       stroke="none"
       d="m -80.735283,68.808099 c 0.311377,-0.003 0.666099,-0.0091 1.019939,0.0061 1.588969,0.06384 3.177716,0.132556 4.766424,0.202064 0.120483,0.0046 0.240027,0.02971 0.390569,0.07679 -0.04623,0.06095 -0.122317,0.114273 -0.199894,0.116254 -1.991396,0.0518 -3.970621,-0.06643 -5.977038,-0.40064 z"
       id="path2665"
       style="stroke-width:0.103005" /><path
       fill="#155182"
       opacity="1"
       stroke="none"
       d="m -17.512842,55.178672 c 0.05087,-0.261364 0.123234,-0.548508 0.208415,-0.832208 0.31061,-1.034425 0.624285,-2.068042 0.94204,-3.100532 0.01699,-0.05516 0.08176,-0.09721 0.16619,-0.150078 -0.251693,1.013993 -0.532932,2.036122 -0.845708,3.049536 -0.107261,0.34754 -0.293439,0.673324 -0.470937,1.033251 z"
       id="path2667"
       style="stroke-width:0.103005" /><path
       fill="#155182"
       opacity="1"
       stroke="none"
       d="m -34.711871,12.865261 c -1.125028,0.03261 -2.248825,0.134994 -3.359874,0.550489 1.001515,-0.636665 2.132902,-0.815052 3.359874,-0.550489 z"
       id="path2669"
       style="stroke-width:0.103005" /><path
       fill="#155182"
       opacity="1"
       stroke="none"
       d="m -46.463118,45.316762 c 0.378995,0.06536 0.780862,0.249571 1.175902,0.237305 0.575965,-0.01783 1.147015,-0.177107 1.762482,-0.272852 -0.895924,0.635096 -1.997307,0.658697 -2.938384,0.0355 z"
       id="path2671"
       style="stroke-width:0.103005" /><path
       fill="#155182"
       opacity="1"
       stroke="none"
       d="m -54.239482,35.363342 c -0.002,0.565542 -0.05704,1.152247 -0.0572,1.738983 -6.5e-5,0.238403 0.119245,0.476821 0.169228,0.754396 -0.62179,-0.772253 -0.609137,-1.611896 -0.11203,-2.493379 z"
       id="path2673"
       style="stroke-width:0.103005" /><path
       fill="#155182"
       opacity="1"
       stroke="none"
       d="m -19.49213,51.588506 c -0.299379,0.84621 -0.632651,1.711054 -1.002433,2.585741 0.298509,-0.84912 0.633526,-1.708114 1.002433,-2.585741 z"
       id="path2675"
       style="stroke-width:0.103005" /><path
       fill="#155182"
       opacity="1"
       stroke="none"
       d="m -16.487019,41.726992 c -0.322215,-0.770318 -0.636271,-1.580937 -0.948583,-2.433013 0.320083,0.769953 0.63842,1.581333 0.948583,2.433013 z"
       id="path2677"
       style="stroke-width:0.103005" /><path
       fill="#55add5"
       opacity="1"
       stroke="none"
       d="m -79.036606,60.022635 c -0.04561,0.05957 -0.134766,0.167752 -0.223997,0.167813 -1.296164,7.92e-4 -2.592342,-0.01371 -3.920017,-0.05104 1.016159,-0.03215 2.063899,-0.03093 3.111423,-0.04434 0.329971,-0.0046 0.659366,-0.0483 1.032591,-0.07237 z"
       id="path2679"
       style="stroke-width:0.103005" /><path
       fill="#155182"
       opacity="1"
       stroke="none"
       d="m -20.718984,57.635133 c 0.596666,-0.09904 1.216336,-0.168041 1.879607,-0.231287 -0.522561,0.53804 -1.17051,0.526491 -1.879607,0.231287 z"
       id="path2681"
       style="stroke-width:0.103005" /><path
       fill="#155182"
       opacity="1"
       stroke="none"
       d="m -48.305239,26.246915 c 0.09788,0.676569 -0.184401,1.285367 -0.542002,1.890828 0.144531,-0.619417 0.325998,-1.245219 0.542002,-1.890828 z"
       id="path2683"
       style="stroke-width:0.103005" /><path
       fill="#55add5"
       opacity="1"
       stroke="none"
       d="m -74.780225,53.404341 c 0.03004,0.717326 0.03089,1.459198 0.03173,2.246992 -0.268328,-0.704253 -0.382061,-1.458116 -0.03173,-2.246992 z"
       id="path2685"
       style="stroke-width:0.103005" /><path
       fill="#155182"
       opacity="1"
       stroke="none"
       d="m -21.188246,55.398471 c -0.0026,0.528685 -0.03573,1.079296 -0.07242,1.670374 -0.391788,-0.53222 -0.276926,-1.092795 0.07242,-1.670374 z"
       id="path2687"
       style="stroke-width:0.103005" /><path
       fill="#155182"
       opacity="1"
       stroke="none"
       d="m -18.458755,56.99117 c 0.230629,-0.511819 0.49116,-1.043597 0.787987,-1.584822 -0.228496,0.515323 -0.493287,1.040108 -0.787987,1.584822 z"
       id="path2689"
       style="stroke-width:0.103005" /><path
       fill="#55add5"
       opacity="1"
       stroke="none"
       d="m -106.72971,38.517506 c 0.0241,0.830455 0.0439,1.707093 0.0337,2.613304 -0.0326,-0.836002 -0.0354,-1.701563 -0.0337,-2.613304 z"
       id="path2691"
       style="stroke-width:0.103005" /><path
       fill="#55add5"
       opacity="1"
       stroke="none"
       d="m -76.815314,12.5254 c -0.843268,0.02423 -1.735465,0.04388 -2.659,0.03535 0.849131,-0.03215 1.729598,-0.03596 2.659,-0.03535 z"
       id="path2693"
       style="stroke-width:0.103005" /><path
       fill="#155182"
       opacity="1"
       stroke="none"
       d="m -33.429805,13.258267 c -0.400768,-0.08182 -0.821928,-0.192511 -1.225449,-0.342269 0.413432,0.07847 0.809249,0.195863 1.225449,0.342269 z"
       id="path2695"
       style="stroke-width:0.103005" /><path
       fill="#155182"
       opacity="1"
       stroke="none"
       d="m -49.545101,42.4154 c 0.269789,0.218641 0.555437,0.467298 0.833391,0.752735 -0.277637,-0.216386 -0.547587,-0.469538 -0.833391,-0.752735 z"
       id="path2697"
       style="stroke-width:0.103005" /><path
       fill="#155182"
       opacity="1"
       stroke="none"
       d="m -39.112982,42.173081 c 0.33108,-0.192846 0.699322,-0.393341 1.108838,-0.582439 -0.329709,0.1992 -0.700699,0.387003 -1.108838,0.582439 z"
       id="path2699"
       style="stroke-width:0.103005" /><path
       fill="#155182"
       opacity="1"
       stroke="none"
       d="m -17.534875,39.019192 c -0.161657,-0.247148 -0.329321,-0.530498 -0.469733,-0.83364 0.172745,0.252633 0.31824,0.525043 0.469733,0.83364 z"
       id="path2701"
       style="stroke-width:0.103005" /><path
       fill="#155182"
       opacity="1"
       stroke="none"
       d="m -23.147996,22.88956 c -0.166479,-0.117015 -0.347462,-0.264106 -0.520634,-0.448298 0.17391,0.114729 0.340021,0.266483 0.520634,0.448298 z"
       id="path2703"
       style="stroke-width:0.103005" /><path
       fill="#155182"
       opacity="1"
       stroke="none"
       d="m -32.807614,13.587859 c -0.187699,-0.05988 -0.395732,-0.147792 -0.591118,-0.273949 0.198691,0.05638 0.384735,0.151145 0.591118,0.273949 z"
       id="path2705"
       style="stroke-width:0.103005" /><path
       fill="#155182"
       opacity="1"
       stroke="none"
       d="m -21.291581,38.741708 c 0.396237,-0.05759 0.261541,0.275046 0.347309,0.499691 -0.113865,-0.129662 -0.224423,-0.299349 -0.347309,-0.499691 z"
       id="path2707"
       style="stroke-width:0.103005" /><path
       fill="#155182"
       opacity="1"
       stroke="none"
       d="m -18.557971,31.955753 c 0.05786,-0.180505 0.146757,-0.379841 0.274373,-0.586873 -0.0553,0.184208 -0.149322,0.376124 -0.274373,0.586873 z"
       id="path2709"
       style="stroke-width:0.103005" /><path
       fill="#155182"
       opacity="1"
       stroke="none"
       d="m -51.264524,32.256975 c -0.05757,0.117777 -0.143439,0.254615 -0.269718,0.39066 0.05353,-0.124329 0.147473,-0.248078 0.269718,-0.39066 z"
       id="path2711"
       style="stroke-width:0.103005" /><path
       fill="#63b5da"
       opacity="1"
       stroke="none"
       d="m -83.925924,68.127461 c 0.160522,0.0015 0.357913,0.01874 0.575618,0.06506 -0.166042,0.003 -0.352396,-0.02316 -0.575618,-0.06506 z"
       id="path2713"
       style="stroke-width:0.103005" /><path
       fill="#155182"
       opacity="1"
       stroke="none"
       d="m -52.029235,33.138244 c -0.04865,0.09325 -0.127011,0.200846 -0.244969,0.3059 0.04535,-0.09888 0.130307,-0.195253 0.244969,-0.3059 z"
       id="path2715"
       style="stroke-width:0.103005" /><path
       fill="#155182"
       opacity="1"
       stroke="none"
       d="m -40.172606,42.783753 c 0.09183,-0.09233 0.217427,-0.194202 0.380423,-0.283838 -0.09062,0.09965 -0.218649,0.186981 -0.380423,0.283838 z"
       id="path2717"
       style="stroke-width:0.103005" /><path
       fill="#155182"
       opacity="1"
       stroke="none"
       d="m -53.99653,38.106231 c 0.09656,0.05241 0.204774,0.134689 0.304494,0.254508 -0.103283,-0.04982 -0.198057,-0.137279 -0.304494,-0.254508 z"
       id="path2719"
       style="stroke-width:0.103005" /><path
       fill="#63b5da"
       opacity="1"
       stroke="none"
       d="m -81.275239,68.710937 c 0.09822,-0.0015 0.231092,0.003 0.37054,0.03931 -0.107575,0.0091 -0.221736,-0.01067 -0.37054,-0.03931 z"
       id="path2721"
       style="stroke-width:0.103005" /><path
       fill="#155182"
       opacity="1"
       stroke="none"
       d="m -39.726225,42.506239 c 0.07684,-0.07192 0.187267,-0.152211 0.33805,-0.227905 -0.07458,0.07618 -0.189524,0.147792 -0.33805,0.227905 z"
       id="path2723"
       style="stroke-width:0.103005" /><path
       fill="#155182"
       opacity="1"
       stroke="none"
       d="m -16.13342,51.084336 c -0.01712,-0.108331 -0.0062,-0.230328 0.03486,-0.375454 0.01781,0.105131 0.0054,0.233527 -0.03486,0.375454 z"
       id="path2725"
       style="stroke-width:0.103005" /><path
       fill="#155182"
       opacity="1"
       stroke="none"
       d="m -31.091002,15.176993 c -0.09303,-0.05043 -0.199808,-0.130118 -0.310571,-0.246478 0.09629,0.04799 0.196562,0.132556 0.310571,0.246478 z"
       id="path2727"
       style="stroke-width:0.103005" /><path
       fill="#155182"
       opacity="1"
       stroke="none"
       d="m -27.041932,39.669433 c 0.04944,-0.06186 0.131142,-0.131337 0.252262,-0.199231 -0.04705,0.06491 -0.133535,0.12829 -0.252262,0.199231 z"
       id="path2729"
       style="stroke-width:0.103005" /><path
       fill="#155182"
       opacity="1"
       stroke="none"
       d="m -22.328122,37.298676 c 0.06634,0.04601 0.144557,0.121738 0.221745,0.235568 -0.07064,-0.04312 -0.140254,-0.12448 -0.221745,-0.235568 z"
       id="path2731"
       style="stroke-width:0.103005" /><path
       fill="#155182"
       opacity="1"
       stroke="none"
       d="m -50.949408,31.858134 c -0.02371,0.08395 -0.07573,0.185259 -0.167928,0.286611 0.01976,-0.08974 0.07968,-0.179408 0.167928,-0.286611 z"
       id="path2733"
       style="stroke-width:0.103005" /><path
       fill="#155182"
       opacity="1"
       stroke="none"
       d="m -21.92173,37.824222 c 0.07129,0.04312 0.152652,0.115949 0.224306,0.228545 -0.07789,-0.03977 -0.14605,-0.1193 -0.224306,-0.228545 z"
       id="path2735"
       style="stroke-width:0.103005" /><path
       fill="#155182"
       opacity="1"
       stroke="none"
       d="m -50.186519,30.777939 c -0.0103,0.06536 -0.03998,0.15567 -0.105191,0.242029 0.0049,-0.07496 0.04537,-0.145964 0.105191,-0.242029 z"
       id="path2737"
       style="stroke-width:0.103005" /><path
       fill="#155182"
       opacity="1"
       stroke="none"
       d="m -21.49934,38.41626 c 0.06964,0.04967 0.14762,0.130271 0.211348,0.246341 -0.07716,-0.04815 -0.140081,-0.131794 -0.211348,-0.246341 z"
       id="path2739"
       style="stroke-width:0.103005" /><path
       fill="#155182"
       opacity="1"
       stroke="none"
       d="m -21.263869,57.131298 c 0.05977,0.0259 0.126858,0.08014 0.175369,0.168392 -0.06841,-0.02392 -0.118234,-0.08197 -0.175369,-0.168392 z"
       id="path2741"
       style="stroke-width:0.103005" /><path
       fill="#155182"
       opacity="1"
       stroke="none"
       d="m -26.7258,39.467841 c 0.02414,-0.05698 0.07897,-0.122348 0.172046,-0.181312 -0.02162,0.06186 -0.08149,0.117319 -0.172046,0.181312 z"
       id="path2743"
       style="stroke-width:0.103005" /><path
       fill="#155182"
       opacity="1"
       stroke="none"
       d="m -26.381162,39.197152 c 0.04105,-0.06872 0.11312,-0.147335 0.222003,-0.22827 -0.03911,0.07131 -0.115039,0.144897 -0.222003,0.22827 z"
       id="path2745"
       style="stroke-width:0.103005" /><path
       fill="#63b5da"
       opacity="1"
       stroke="none"
       d="m -81.979924,68.549386 c 0.117847,-0.01067 0.263822,0.01067 0.429433,0.06902 -0.120669,0.01371 -0.26099,-0.01219 -0.429433,-0.06902 z"
       id="path2747"
       style="stroke-width:0.103005" /><path
       fill="#63b5da"
       opacity="1"
       stroke="none"
       d="m -82.505539,68.447897 c 0.117761,-0.01219 0.268004,0.0061 0.450441,0.05622 -0.117862,0.01219 -0.267914,-0.0076 -0.450441,-0.05622 z"
       id="path2749"
       style="stroke-width:0.103005" /><path
       fill="#63b5da"
       opacity="1"
       stroke="none"
       d="m -83.314065,68.251668 c 0.108105,-0.01828 0.235474,-0.0046 0.385503,0.04007 -0.106973,0.01737 -0.236611,0.0046 -0.385503,-0.04007 z"
       id="path2751"
       style="stroke-width:0.103005" /><path
       fill="#155182"
       opacity="1"
       stroke="none"
       d="m -40.615489,43.083589 c 0.02872,-0.05683 0.08856,-0.125091 0.187674,-0.183888 -0.026,0.06384 -0.09127,0.118082 -0.187674,0.183888 z"
       id="path2753"
       style="stroke-width:0.103005" /><path
       fill="#155182"
       opacity="1"
       stroke="none"
       d="m -46.702656,45.142291 c 0.06528,0.0091 0.146089,0.04251 0.22699,0.113358 -0.07042,-0.0046 -0.140943,-0.04617 -0.22699,-0.113358 z"
       id="path2755"
       style="stroke-width:0.103005" /><path
       fill="#155182"
       opacity="1"
       stroke="none"
       d="m -43.459118,45.281398 c 0.02347,-0.05729 0.07735,-0.124024 0.169791,-0.184085 -0.02076,0.06262 -0.08007,0.118691 -0.169791,0.184085 z"
       id="path2757"
       style="stroke-width:0.103005" /><path
       fill="#155182"
       opacity="1"
       stroke="none"
       d="m -22.752245,36.797141 c 0.0612,0.02209 0.135454,0.07252 0.20387,0.160241 -0.06751,-0.01905 -0.12915,-0.07542 -0.20387,-0.160241 z"
       id="path2759"
       style="stroke-width:0.103005" /><path
       fill="#155182"
       opacity="1"
       stroke="none"
       d="m -38.136293,13.412261 c -0.05289,0.06277 -0.13895,0.133165 -0.262393,0.20019 0.05149,-0.06643 0.140353,-0.129509 0.262393,-0.20019 z"
       id="path2761"
       style="stroke-width:0.103005" /><path
       fill="#155182"
       opacity="1"
       stroke="none"
       d="m -22.102317,37.595525 c 0.05872,0.02407 0.127059,0.07679 0.187163,0.165436 -0.06467,-0.02164 -0.121099,-0.07923 -0.187163,-0.165436 z"
       id="path2763"
       style="stroke-width:0.103005" /><path
       fill="#155182"
       opacity="1"
       stroke="none"
       d="m -32.566769,13.765469 c -0.06485,-0.0091 -0.14477,-0.04601 -0.225792,-0.118386 0.0695,0.0061 0.140124,0.04921 0.225792,0.118386 z"
       id="path2765"
       style="stroke-width:0.103005" /><path
       fill="#155182"
       opacity="1"
       stroke="none"
       d="m -50.771031,31.631402 c -0.0087,0.06034 -0.04359,0.136518 -0.116969,0.21404 0.0046,-0.06521 0.04768,-0.131642 0.116969,-0.21404 z"
       id="path2767"
       style="stroke-width:0.103005" /><path
       fill="#155182"
       opacity="1"
       stroke="none"
       d="m -29.519833,16.696009 c -0.05738,-0.02026 -0.128793,-0.0675 -0.20204,-0.149468 0.06146,0.01767 0.124724,0.07009 0.20204,0.149468 z"
       id="path2769"
       style="stroke-width:0.103005" /><path
       fill="#155182"
       opacity="1"
       stroke="none"
       d="m -52.072223,39.994622 c 0.05588,0.01981 0.125685,0.06628 0.198982,0.146421 -0.05936,-0.01752 -0.122207,-0.06872 -0.198982,-0.146421 z"
       id="path2771"
       style="stroke-width:0.103005" /><path
       fill="#63b5da"
       opacity="1"
       stroke="none"
       d="m -82.891425,68.351466 c 0.0807,-0.01371 0.179876,0.0046 0.302768,0.05241 -0.07895,0.01371 -0.181612,-0.003 -0.302768,-0.05241 z"
       id="path2773"
       style="stroke-width:0.103005" /><path
       fill="#155182"
       opacity="1"
       stroke="none"
       d="m -20.757751,54.599966 c 0.0036,0.06963 -0.01897,0.1612 -0.08021,0.259916 -0.0077,-0.07451 0.02316,-0.156233 0.08021,-0.259916 z"
       id="path2775"
       style="stroke-width:0.103005" /><path
       fill="#155182"
       opacity="1"
       stroke="none"
       d="m -29.415096,16.796005 c -0.02668,0.0061 -0.06253,-0.01066 -0.0971,-0.05287 0.03738,-0.01722 0.06624,9.9e-4 0.0971,0.05287 z"
       id="path2777"
       style="stroke-width:0.103005" /><path
       fill="#155182"
       opacity="1"
       stroke="none"
       d="m -20.660486,39.821004 c 0.03968,0.01524 0.08543,0.05912 0.120068,0.138498 -0.0454,-0.01219 -0.07972,-0.06079 -0.120068,-0.138498 z"
       id="path2779"
       style="stroke-width:0.103005" /><path
       fill="#155182"
       opacity="1"
       stroke="none"
       d="m -54.019514,35.056361 c 0.0051,0.0451 -0.01788,0.106806 -0.07682,0.176284 -0.0077,-0.04815 0.02048,-0.103759 0.07682,-0.176284 z"
       id="path2781"
       style="stroke-width:0.103005" /><path
       fill="#155182"
       opacity="1"
       stroke="none"
       d="m -22.989157,36.521501 c 0.04067,0.0091 0.08909,0.04708 0.139594,0.119301 -0.04256,-0.0076 -0.0872,-0.04891 -0.139594,-0.119301 z"
       id="path2783"
       style="stroke-width:0.103005" /><path
       fill="#63b5da"
       opacity="1"
       stroke="none"
       d="m -55.017298,61.592769 c -0.0038,-0.02224 0.01599,-0.05561 0.0617,-0.08913 0.01178,0.03124 -0.0096,0.05729 -0.0617,0.08913 z"
       id="path2785"
       style="stroke-width:0.103005" /><path
       fill="#155182"
       opacity="1"
       stroke="none"
       d="m -22.555797,37.007083 c 0.03756,0.01371 0.08279,0.05637 0.130368,0.133013 -0.03934,-0.01219 -0.08103,-0.05759 -0.130368,-0.133013 z"
       id="path2787"
       style="stroke-width:0.103005" /><path
       fill="#63b5da"
       opacity="1"
       stroke="none"
       d="m -53.001236,59.689676 c 0.0015,-0.04342 0.03158,-0.105283 0.09844,-0.177382 0.0012,0.04617 -0.03426,0.102541 -0.09844,0.177382 z"
       id="path2789"
       style="stroke-width:0.103005" /><path
       fill="#155182"
       opacity="1"
       stroke="none"
       d="m -38.451179,13.606539 c -0.0073,0.02986 -0.04089,0.06658 -0.102518,0.107416 0.0067,-0.03078 0.0415,-0.06567 0.102518,-0.107416 z"
       id="path2791"
       style="stroke-width:0.103005" /><path
       fill="#155182"
       opacity="1"
       stroke="none"
       d="m -18.576616,57.188176 c -0.0063,-0.04205 0.01332,-0.10315 0.06503,-0.176788 0.0085,0.04419 -0.01536,0.101017 -0.06503,0.176788 z"
       id="path2793"
       style="stroke-width:0.103005" /><path
       fill="#155182"
       opacity="1"
       stroke="none"
       d="m -32.381359,13.902672 c -0.04524,8.99e-4 -0.109194,-0.02423 -0.180742,-0.08258 0.04895,-0.003 0.105498,0.02666 0.180742,0.08258 z"
       id="path2795"
       style="stroke-width:0.103005" /><path
       fill="#155182"
       opacity="1"
       stroke="none"
       d="m -17.617242,55.387973 c -0.01017,-0.04266 0.0056,-0.104369 0.05242,-0.180093 0.01189,0.04434 -0.0073,0.102693 -0.05242,0.180093 z"
       id="path2797"
       style="stroke-width:0.103005" /><path
       fill="#155182"
       opacity="1"
       stroke="none"
       d="m -21.076487,55.195919 c 0.0087,0.04266 -0.0089,0.103912 -0.05785,0.178372 -0.01046,-0.04434 0.0106,-0.102236 0.05785,-0.178372 z"
       id="path2799"
       style="stroke-width:0.103005" /><path
       fill="#155182"
       opacity="1"
       stroke="none"
       d="m -54.134486,37.926824 c 0.04163,0.0091 0.09051,0.04784 0.136967,0.121281 -0.04485,-0.0076 -0.08728,-0.04982 -0.136967,-0.121281 z"
       id="path2801"
       style="stroke-width:0.103005" /><path
       fill="#155182"
       opacity="1"
       stroke="none"
       d="m -20.898175,54.877937 c 0.0139,0.0483 0.0011,0.112444 -0.04993,0.180139 -0.01779,-0.05241 0.0027,-0.10833 0.04993,-0.180139 z"
       id="path2803"
       style="stroke-width:0.103005" /><path
       fill="#155182"
       opacity="1"
       stroke="none"
       d="m -21.710173,38.109995 c 0.03837,0.01371 0.08398,0.05729 0.128663,0.135298 -0.04107,-0.01219 -0.08124,-0.05866 -0.128663,-0.135298 z"
       id="path2805"
       style="stroke-width:0.103005" /><path
       fill="#155182"
       opacity="1"
       stroke="none"
       d="m -20.650336,54.396987 c 0.008,0.04129 -0.0089,0.102084 -0.05672,0.176437 -0.01003,-0.04327 0.01089,-0.100103 0.05672,-0.176437 z"
       id="path2807"
       style="stroke-width:0.103005" /><path
       fill="#155182"
       opacity="1"
       stroke="none"
       d="m -20.547796,54.193201 c 0.0097,0.04236 -0.0063,0.103912 -0.05326,0.179621 -0.01146,-0.04403 0.008,-0.102235 0.05326,-0.179621 z"
       id="path2809"
       style="stroke-width:0.103005" /><path
       fill="#155182"
       opacity="1"
       stroke="none"
       d="m -40.368193,42.908188 c 0.01214,-0.03855 0.05596,-0.0838 0.13678,-0.126766 -0.01037,0.0416 -0.05775,0.08075 -0.13678,0.126766 z"
       id="path2811"
       style="stroke-width:0.103005" /><path
       fill="#155182"
       opacity="1"
       stroke="none"
       d="m -26.1009,38.959466 c 0.002,-0.03489 0.02811,-0.07908 0.06921,-0.105283 0.005,0.05104 -0.01511,0.07694 -0.06921,0.105283 z"
       id="path2813"
       style="stroke-width:0.103005" /><path
       fill="#155182"
       opacity="1"
       stroke="none"
       d="m -39.329497,42.285312 c 0.01765,-0.03108 0.06686,-0.06902 0.150977,-0.10833 -0.01655,0.03291 -0.06798,0.06734 -0.150977,0.10833 z"
       id="path2815"
       style="stroke-width:0.103005" /><path
       fill="#155182"
       opacity="1"
       stroke="none"
       d="m -17.431244,39.230825 c -0.03299,-0.01813 -0.07004,-0.06719 -0.1063,-0.149164 0.0346,0.01737 0.06844,0.0678 0.1063,0.149164 z"
       id="path2817"
       style="stroke-width:0.103005" /><path
       fill="#155182"
       opacity="1"
       stroke="none"
       d="m -20.555975,40.023982 c 0.04,0.01371 0.08613,0.05729 0.121028,0.135603 -0.04579,-0.01219 -0.08034,-0.05912 -0.121028,-0.135603 z"
       id="path2819"
       style="stroke-width:0.103005" /><path
       fill="#155182"
       opacity="1"
       stroke="none"
       d="m -20.950647,39.300272 c 0.03318,0.01706 0.07235,0.06475 0.11193,0.145354 -0.03503,-0.0163 -0.07047,-0.06552 -0.11193,-0.145354 z"
       id="path2821"
       style="stroke-width:0.103005" /><path
       fill="#155182"
       opacity="1"
       stroke="none"
       d="m -20.839612,39.498451 c 0.031,0.01798 0.06809,0.06552 0.107361,0.145507 -0.03229,-0.01706 -0.06679,-0.06643 -0.107361,-0.145507 z"
       id="path2823"
       style="stroke-width:0.103005" /><path
       fill="#155182"
       opacity="1"
       stroke="none"
       d="m -52.33159,39.730561 c 0.04096,0.0061 0.09007,0.04099 0.141874,0.10894 -0.04278,-0.0046 -0.08824,-0.04281 -0.141874,-0.10894 z"
       id="path2825"
       style="stroke-width:0.103005" /><path
       fill="#155182"
       opacity="1"
       stroke="none"
       d="m -27.253501,39.781862 c 0.01733,-0.03184 0.06657,-0.07009 0.150822,-0.109245 -0.0163,0.03367 -0.06762,0.06826 -0.150822,0.109245 z"
       id="path2827"
       style="stroke-width:0.103005" /><path
       fill="#155182"
       opacity="1"
       stroke="none"
       d="m -18.996962,32.555638 c -0.0037,-0.04449 0.01978,-0.106197 0.07985,-0.173618 0.0069,0.0483 -0.02282,0.102236 -0.07985,0.173618 z"
       id="path2829"
       style="stroke-width:0.103005" /><path
       fill="#155182"
       opacity="1"
       stroke="none"
       d="m -25.132403,20.96346 c -0.0418,-0.0061 -0.09106,-0.03901 -0.142059,-0.106197 0.04371,0.003 0.08917,0.04114 0.142059,0.106197 z"
       id="path2831"
       style="stroke-width:0.103005" /><path
       fill="#155182"
       opacity="1"
       stroke="none"
       d="m -20.683477,25.267966 c -0.0422,-0.0046 -0.0914,-0.03794 -0.142015,-0.104674 0.04405,0.003 0.08954,0.04007 0.142015,0.104674 z"
       id="path2833"
       style="stroke-width:0.103005" /><path
       fill="#155182"
       opacity="1"
       stroke="none"
       d="m -50.426833,31.146963 c 0.0071,0.04693 -0.01428,0.108788 -0.07257,0.175142 -0.0099,-0.05043 0.01711,-0.105283 0.07257,-0.175142 z"
       id="path2835"
       style="stroke-width:0.103005" /><path
       fill="#155182"
       opacity="1"
       stroke="none"
       d="m -50.637937,31.448307 c 0.0067,0.04632 -0.0147,0.108178 -0.07281,0.174898 -0.0096,-0.04982 0.0176,-0.104521 0.07281,-0.174898 z"
       id="path2837"
       style="stroke-width:0.103005" /><path
       fill="#155182"
       opacity="1"
       stroke="none"
       d="m -18.681081,32.145308 c -0.0049,-0.0419 0.01563,-0.102388 0.06937,-0.173511 0.0074,0.04449 -0.01818,0.09965 -0.06937,0.173511 z"
       id="path2839"
       style="stroke-width:0.103005" /><path
       fill="#155182"
       opacity="1"
       stroke="none"
       d="m -51.688788,32.751958 c 0.0035,0.0451 -0.0209,0.106197 -0.08216,0.170007 -0.0065,-0.04952 0.02392,-0.101779 0.08216,-0.170007 z"
       id="path2841"
       style="stroke-width:0.103005" /><path
       fill="#155182"
       opacity="1"
       stroke="none"
       d="m -46.924032,44.93596 c 0.03234,-0.01371 0.07043,-7.01e-4 0.108797,0.0448 -0.03417,0.01569 -0.06861,-4.88e-4 -0.108797,-0.0448 z"
       id="path2843"
       style="stroke-width:0.103005" /><path
       fill="#155182"
       opacity="1"
       stroke="none"
       d="m -47.451914,44.430327 c 0.03084,-0.01371 0.06896,0.0015 0.108758,0.04921 -0.03271,0.01371 -0.0671,-0.003 -0.108758,-0.04921 z"
       id="path2845"
       style="stroke-width:0.103005" /><path
       fill="#155182"
       opacity="1"
       stroke="none"
       d="m -47.347139,44.532578 c 0.03148,-0.01371 0.06964,7.01e-4 0.108326,0.04693 -0.03353,0.01524 -0.06759,-0.0015 -0.108326,-0.04693 z"
       id="path2847"
       style="stroke-width:0.103005" /><path
       fill="#155182"
       opacity="1"
       stroke="none"
       d="m -47.241832,44.635759 c 0.03245,-0.01524 0.07049,-8.99e-4 0.108765,0.04449 -0.03423,0.01569 -0.06871,-3.05e-4 -0.108765,-0.04449 z"
       id="path2849"
       style="stroke-width:0.103005" /><path
       fill="#155182"
       opacity="1"
       stroke="none"
       d="m -47.135886,44.735709 c 0.03244,-0.01524 0.07049,-7.01e-4 0.108836,0.0448 -0.03421,0.01569 -0.06872,-4.11e-4 -0.108836,-0.0448 z"
       id="path2851"
       style="stroke-width:0.103005" /><path
       fill="#155182"
       opacity="1"
       stroke="none"
       d="m -24.293019,21.780569 c -0.03057,0.01219 -0.06865,-0.003 -0.108377,-0.05013 0.03252,-0.01371 0.06669,0.0046 0.108377,0.05013 z"
       id="path2853"
       style="stroke-width:0.103005" /><path
       fill="#155182"
       opacity="1"
       stroke="none"
       d="m -24.188806,21.883475 c -0.02978,0.01219 -0.06763,-0.0046 -0.108277,-0.05241 0.03155,-0.01371 0.06587,0.0061 0.108277,0.05241 z"
       id="path2855"
       style="stroke-width:0.103005" /><path
       fill="#155182"
       opacity="1"
       stroke="none"
       d="m -47.029933,44.835766 c 0.03236,-0.01371 0.07043,-7.01e-4 0.108836,0.0448 -0.03416,0.01554 -0.06864,-5.03e-4 -0.108836,-0.0448 z"
       id="path2857"
       style="stroke-width:0.103005" /><path
       fill="#155182"
       opacity="1"
       stroke="none"
       d="m -47.556904,44.328366 c 0.03048,-0.01219 0.06845,0.003 0.108713,0.05074 -0.03222,0.01371 -0.06672,-0.0046 -0.108713,-0.05074 z"
       id="path2859"
       style="stroke-width:0.103005" /><path
       fill="#155182"
       opacity="1"
       stroke="none"
       d="m -43.113349,45.013742 c -0.0074,-0.02011 0.0032,-0.04632 0.02653,-0.05439 0.01264,0.01813 -0.0084,0.04845 -0.02653,0.05439 z"
       id="path2861"
       style="stroke-width:0.103005" /><path
       fill="#155182"
       opacity="1"
       stroke="none"
       d="m -49.655929,42.305287 c 0.02351,-0.0076 0.05794,0.01219 0.101084,0.05988 -0.02425,0.0076 -0.0572,-0.01219 -0.101084,-0.05988 z"
       id="path2863"
       style="stroke-width:0.103005" /><path
       fill="#155182"
       opacity="1"
       stroke="none"
       d="m -46.816748,45.03556 c 0.0319,-0.01371 0.06999,-3.05e-4 0.110427,0.0454 -0.03317,0.01539 -0.06871,-8.99e-4 -0.110427,-0.0454 z"
       id="path2865"
       style="stroke-width:0.103005" /><path
       fill="#155182"
       opacity="1"
       stroke="none"
       d="m -43.235652,45.10199 c -0.01119,-0.02727 0.0076,-0.06247 0.05956,-0.0998 0.01228,0.02925 -0.0087,0.06049 -0.05956,0.0998 z"
       id="path2867"
       style="stroke-width:0.103005" /><path
       fill="#155182"
       opacity="1"
       stroke="none"
       d="m -24.964682,21.115153 c -0.01857,0.01219 -0.04235,0.01219 -0.04918,-0.0061 0.01696,-0.01752 0.04395,-0.0061 0.04918,0.0061 z"
       id="path2869"
       style="stroke-width:0.103005" /><path
       fill="#155182"
       opacity="1"
       stroke="none"
       d="m -25.031753,21.070983 c -0.03314,0.01554 -0.071,0.003 -0.108306,-0.04144 0.0349,-0.01661 0.06925,-0.0015 0.108306,0.04144 z"
       id="path2871"
       style="stroke-width:0.103005" /><path
       fill="#155182"
       opacity="1"
       stroke="none"
       d="m -24.083428,21.983608 c -0.02957,0.01219 -0.06748,-0.0046 -0.108994,-0.05211 0.03115,-0.01371 0.0659,0.0061 0.108994,0.05211 z"
       id="path2873"
       style="stroke-width:0.103005" /><path
       fill="#155182"
       opacity="1"
       stroke="none"
       d="m -24.398054,21.677556 c -0.03126,0.01371 -0.06945,-0.0012 -0.109051,-0.04769 0.03311,-0.01524 0.06761,0.003 0.109051,0.04769 z"
       id="path2875"
       style="stroke-width:0.103005" /><path
       fill="#155182"
       opacity="1"
       stroke="none"
       d="m -47.661758,44.226481 c 0.02983,-0.01219 0.06772,0.0046 0.108675,0.05196 -0.0315,0.01371 -0.06605,-0.0046 -0.108675,-0.05196 z"
       id="path2877"
       style="stroke-width:0.103005" /><path
       fill="#155182"
       opacity="1"
       stroke="none"
       d="m -30.985237,15.289346 c -0.0242,0.0076 -0.05887,-0.01219 -0.100685,-0.06125 0.0253,-0.0076 0.05775,0.01371 0.100685,0.06125 z"
       id="path2879"
       style="stroke-width:0.103005" /><path
       fill="#155182"
       opacity="1"
       stroke="none"
       d="m -31.502742,14.777451 c -0.02779,0.01067 -0.06505,-0.0076 -0.107748,-0.05531 0.02914,-0.01067 0.06372,0.0076 0.107748,0.05531 z"
       id="path2881"
       style="stroke-width:0.103005" /><path
       fill="#155182"
       opacity="1"
       stroke="none"
       d="m -47.767251,44.126058 c 0.02967,-0.01219 0.06756,0.0046 0.109082,0.05211 -0.0312,0.01371 -0.06603,-0.0061 -0.109082,-0.05211 z"
       id="path2883"
       style="stroke-width:0.103005" /><path
       fill="#155182"
       opacity="1"
       stroke="none"
       d="m -47.87312,44.025803 c 0.02964,-0.01219 0.06752,0.0046 0.109056,0.05211 -0.03118,0.01371 -0.066,-0.0061 -0.109056,-0.05211 z"
       id="path2885"
       style="stroke-width:0.103005" /><path
       fill="#155182"
       opacity="1"
       stroke="none"
       d="m -47.978704,43.924923 c 0.02948,-0.01219 0.06729,0.0046 0.108824,0.05272 -0.03101,0.01219 -0.06576,-0.0061 -0.108824,-0.05272 z"
       id="path2887"
       style="stroke-width:0.103005" /><path
       fill="#155182"
       opacity="1"
       stroke="none"
       d="m -48.084127,43.824059 c 0.02926,-0.01219 0.06699,0.0046 0.108753,0.05318 -0.03073,0.01219 -0.06551,-0.0061 -0.108753,-0.05318 z"
       id="path2889"
       style="stroke-width:0.103005" /><path
       fill="#155182"
       opacity="1"
       stroke="none"
       d="m -48.188308,43.721122 c 0.02856,-0.01067 0.06591,0.0061 0.107531,0.05546 -0.03006,0.01219 -0.06441,-0.0076 -0.107531,-0.05546 z"
       id="path2891"
       style="stroke-width:0.103005" /><path
       fill="#155182"
       opacity="1"
       stroke="none"
       d="m -48.293271,43.620273 c 0.02815,-0.01066 0.06543,0.0061 0.10808,0.05531 -0.02941,0.01219 -0.06417,-0.0076 -0.10808,-0.05531 z"
       id="path2893"
       style="stroke-width:0.103005" /><path
       fill="#155182"
       opacity="1"
       stroke="none"
       d="m -48.398584,43.519348 c 0.02799,-0.01067 0.06512,0.0076 0.107743,0.05592 -0.0292,0.01066 -0.0639,-0.0076 -0.107743,-0.05592 z"
       id="path2895"
       style="stroke-width:0.103005" /><path
       fill="#155182"
       opacity="1"
       stroke="none"
       d="m -48.504337,43.419199 c 0.02791,-0.01066 0.06505,0.0076 0.107971,0.05546 -0.02905,0.01067 -0.0639,-0.0076 -0.107971,-0.05546 z"
       id="path2897"
       style="stroke-width:0.103005" /><path
       fill="#155182"
       opacity="1"
       stroke="none"
       d="m -48.609539,43.317984 c 0.0276,-0.01067 0.06459,0.0076 0.107272,0.05637 -0.02884,0.01067 -0.06336,-0.0091 -0.107272,-0.05637 z"
       id="path2899"
       style="stroke-width:0.103005" /><path
       fill="#155182"
       opacity="1"
       stroke="none"
       d="m -48.715181,43.217714 c 0.02747,-0.01067 0.06445,0.0076 0.107563,0.05607 -0.0286,0.01067 -0.06333,-0.0091 -0.107563,-0.05607 z"
       id="path2901"
       style="stroke-width:0.103005" /><path
       fill="#155182"
       opacity="1"
       stroke="none"
       d="m -24.603487,21.461261 c -0.0204,0.0091 -0.04739,0.003 -0.0556,-0.01371 0.01878,-0.01219 0.04901,-7.7e-5 0.0556,0.01371 z"
       id="path2903"
       style="stroke-width:0.103005" /><path
       fill="#155182"
       opacity="1"
       stroke="none"
       d="m -24.503438,21.576905 c -0.03142,0.01371 -0.06967,-7.01e-4 -0.10842,-0.04693 0.03352,-0.01524 0.06756,0.0015 0.10842,0.04693 z"
       id="path2905"
       style="stroke-width:0.103005" /><path
       fill="#155182"
       opacity="1"
       stroke="none"
       d="m -28.215512,17.978542 c -0.02911,0.01219 -0.06687,-0.0046 -0.108836,-0.05302 0.0306,-0.01219 0.06538,0.0061 0.108836,0.05302 z"
       id="path2907"
       style="stroke-width:0.103005" /><path
       fill="#155182"
       opacity="1"
       stroke="none"
       d="m -18.781229,57.406238 c -0.0072,-0.02194 0.0139,-0.0547 0.06477,-0.09645 0.0077,0.0224 -0.0144,0.05409 -0.06477,0.09645 z"
       id="path2909"
       style="stroke-width:0.103005" /><path
       fill="#155182"
       opacity="1"
       stroke="none"
       d="m -20.969552,57.457173 c 0.03231,-0.01524 0.07014,-0.0012 0.1114,0.04373 -0.03301,0.01569 -0.06942,1.98e-4 -0.1114,-0.04373 z"
       id="path2911"
       style="stroke-width:0.103005" /><path
       fill="#155182"
       opacity="1"
       stroke="none"
       d="m -27.795716,18.384285 c -0.02788,0.01067 -0.06486,-0.0076 -0.106959,-0.05653 0.0292,-0.01067 0.06352,0.0091 0.106959,0.05653 z"
       id="path2913"
       style="stroke-width:0.103005" /><path
       fill="#155182"
       opacity="1"
       stroke="none"
       d="m -20.854561,57.544523 c 0.02672,-0.01371 0.06445,-3.96e-4 0.112833,0.04083 -0.02685,0.01371 -0.06433,4.6e-5 -0.112833,-0.04083 z"
       id="path2915"
       style="stroke-width:0.103005" /><path
       fill="#155182"
       opacity="1"
       stroke="none"
       d="m -27.900002,18.282232 c -0.02828,0.01067 -0.06566,-0.0076 -0.107518,-0.05546 0.02981,-0.01219 0.06414,0.0076 0.107518,0.05546 z"
       id="path2917"
       style="stroke-width:0.103005" /><path
       fill="#155182"
       opacity="1"
       stroke="none"
       d="m -28.004752,18.180423 c -0.02868,0.01067 -0.06623,-0.0061 -0.108192,-0.05424 0.03016,-0.01219 0.06475,0.0076 0.108192,0.05424 z"
       id="path2919"
       style="stroke-width:0.103005" /><path
       fill="#7bc0df"
       opacity="1"
       stroke="none"
       d="m -97.709492,60.377931 c 0.0244,0.01067 0.0371,0.03291 0.04981,0.0547 -0.02037,0.003 -0.04073,0.0061 -0.07263,-0.0061 -0.0116,-0.01569 0.01117,-0.03779 0.02282,-0.04845 z"
       id="path2921"
       style="stroke-width:0.103005" /><path
       fill="#155182"
       opacity="1"
       stroke="none"
       d="m -28.109981,18.079422 c -0.02894,0.01066 -0.06662,-0.0061 -0.108464,-0.05363 0.03046,-0.01219 0.0651,0.0061 0.108464,0.05363 z"
       id="path2923"
       style="stroke-width:0.103005" /><path
       fill="#155182"
       opacity="1"
       stroke="none"
       d="m -21.078401,57.35899 c 0.03335,-0.01539 0.07127,-0.003 0.108091,0.0419 -0.03524,0.01646 -0.06937,0.0014 -0.108091,-0.0419 z"
       id="path2925"
       style="stroke-width:0.103005" /><path
       fill="#155182"
       opacity="1"
       stroke="none"
       d="m -28.320735,17.878135 c -0.02941,0.01219 -0.06718,-0.0046 -0.107991,-0.05333 0.03119,-0.01219 0.06541,0.0061 0.107991,0.05333 z"
       id="path2927"
       style="stroke-width:0.103005" /><path
       fill="#155182"
       opacity="1"
       stroke="none"
       d="m -28.425672,17.775259 c -0.02991,0.01219 -0.06794,-0.003 -0.109366,-0.05074 0.03148,-0.01371 0.06636,0.0046 0.109366,0.05074 z"
       id="path2929"
       style="stroke-width:0.103005" /><path
       fill="#155182"
       opacity="1"
       stroke="none"
       d="m -28.53105,17.675476 c -0.0301,0.01219 -0.06819,-0.003 -0.108005,-0.05135 0.03219,-0.01371 0.0661,0.0046 0.108005,0.05135 z"
       id="path2931"
       style="stroke-width:0.103005" /><path
       fill="#155182"
       opacity="1"
       stroke="none"
       d="m -28.635851,17.571854 c -0.03082,0.01371 -0.0691,-0.0015 -0.108894,-0.04845 0.03281,-0.01371 0.0671,0.003 0.108894,0.04845 z"
       id="path2933"
       style="stroke-width:0.103005" /><path
       fill="#155182"
       opacity="1"
       stroke="none"
       d="m -28.741467,17.471553 c -0.03096,0.01371 -0.06925,-0.0015 -0.10855,-0.04845 0.03307,-0.01371 0.06713,0.003 0.10855,0.04845 z"
       id="path2935"
       style="stroke-width:0.103005" /><path
       fill="#155182"
       opacity="1"
       stroke="none"
       d="m -28.846826,17.370262 c -0.0313,0.01371 -0.06951,-0.001 -0.108464,-0.04739 0.03337,-0.01524 0.06746,0.0015 0.108464,0.04739 z"
       id="path2937"
       style="stroke-width:0.103005" /><path
       fill="#155182"
       opacity="1"
       stroke="none"
       d="m -28.946107,17.256645 c -0.02064,0.0091 -0.04796,0.003 -0.05649,-0.01646 0.0188,-0.01219 0.0498,0.0015 0.05649,0.01646 z"
       id="path2939"
       style="stroke-width:0.103005" /><path
       fill="#155182"
       opacity="1"
       stroke="none"
       d="m -27.063887,19.093978 c -0.02453,0.0076 -0.0598,-0.01066 -0.102847,-0.05927 0.02551,-0.0091 0.05879,0.01219 0.102847,0.05927 z"
       id="path2941"
       style="stroke-width:0.103005" /><path
       fill="#155182"
       opacity="1"
       stroke="none"
       d="m -26.533239,19.598864 c -0.02183,0.0076 -0.05824,-0.01219 -0.105842,-0.05896 0.02296,-0.0076 0.0571,0.01219 0.105842,0.05896 z"
       id="path2943"
       style="stroke-width:0.103005" /><path
       fill="#155182"
       opacity="1"
       stroke="none"
       d="m -23.979364,22.087246 c -0.02888,0.01066 -0.06633,-0.0061 -0.10726,-0.05516 0.03057,-0.01219 0.06462,0.0076 0.10726,0.05516 z"
       id="path2945"
       style="stroke-width:0.103005" /><path
       fill="#155182"
       opacity="1"
       stroke="none"
       d="m -31.606729,14.676678 c -0.02862,0.01066 -0.0658,-0.0076 -0.104968,-0.05668 0.03082,-0.01067 0.06362,0.0091 0.104968,0.05668 z"
       id="path2947"
       style="stroke-width:0.103005" /><path
       fill="#55add5"
       opacity="1"
       stroke="none"
       d="m -74.673748,53.261089 c 0.01032,0.02148 -0.0072,0.05912 -0.05364,0.111682 -0.01075,-0.02194 0.0076,-0.05866 0.05364,-0.111682 z"
       id="path2949"
       style="stroke-width:0.103005" /><path
       fill="#155182"
       opacity="1"
       stroke="none"
       d="m -31.701239,14.560272 c -0.02115,0.0076 -0.04914,-0.0015 -0.05865,-0.02346 0.01849,-0.01219 0.05177,0.0061 0.05865,0.02346 z"
       id="path2951"
       style="stroke-width:0.103005" /><path
       fill="#155182"
       opacity="1"
       stroke="none"
       d="m -26.64508,19.498579 c -0.02295,0.0046 -0.0569,-0.01874 -0.09975,-0.07176 0.02365,-0.0046 0.0562,0.01935 0.09975,0.07176 z"
       id="path2953"
       style="stroke-width:0.103005" /><path
       fill="#155182"
       opacity="1"
       stroke="none"
       d="m -26.846772,19.297139 c -0.02242,0.0076 -0.06005,-0.01067 -0.109051,-0.05866 0.0237,-0.0091 0.05878,0.01219 0.109051,0.05866 z"
       id="path2955"
       style="stroke-width:0.103005" /><path
       fill="#155182"
       opacity="1"
       stroke="none"
       d="m -26.959487,19.195376 c -0.02404,0.0076 -0.05894,-0.01219 -0.101931,-0.05973 0.02496,-0.0076 0.05802,0.01219 0.101931,0.05973 z"
       id="path2957"
       style="stroke-width:0.103005" /><path
       fill="#155182"
       opacity="1"
       stroke="none"
       d="m -31.398327,14.879351 c -0.02723,0.0091 -0.06414,-0.0076 -0.106358,-0.05683 0.0287,-0.01067 0.06269,0.0091 0.106358,0.05683 z"
       id="path2959"
       style="stroke-width:0.103005" /><path
       fill="#155182"
       opacity="1"
       stroke="none"
       d="m -20.995477,55.067904 c 0.01739,0.02605 0.0062,0.06155 -0.03339,0.107873 -0.01736,-0.0256 -0.0063,-0.06201 0.03339,-0.107873 z"
       id="path2961"
       style="stroke-width:0.103005" /><path
       fill="#155182"
       opacity="1"
       stroke="none"
       d="m -27.168916,18.993053 c -0.02473,0.0076 -0.06021,-0.01067 -0.103693,-0.05851 0.02564,-0.0091 0.05928,0.01067 0.103693,0.05851 z"
       id="path2963"
       style="stroke-width:0.103005" /><path
       fill="#155182"
       opacity="1"
       stroke="none"
       d="m -27.274241,18.892661 c -0.02496,0.0076 -0.06034,-0.01219 -0.102662,-0.06049 0.02612,-0.0091 0.05918,0.01219 0.102662,0.06049 z"
       id="path2965"
       style="stroke-width:0.103005" /><path
       fill="#155182"
       opacity="1"
       stroke="none"
       d="m -27.377,18.789541 c -0.02587,0.0091 -0.06206,-0.0091 -0.105441,-0.0579 0.02692,-0.0091 0.06102,0.01067 0.105441,0.0579 z"
       id="path2967"
       style="stroke-width:0.103005" /><path
       fill="#155182"
       opacity="1"
       stroke="none"
       d="m -27.482164,18.688936 c -0.02622,0.0091 -0.06245,-0.0091 -0.105169,-0.05836 0.02739,-0.0091 0.06127,0.01067 0.105169,0.05836 z"
       id="path2969"
       style="stroke-width:0.103005" /><path
       fill="#155182"
       opacity="1"
       stroke="none"
       d="m -27.586307,18.586852 c -0.02689,0.0091 -0.06349,-0.0091 -0.106387,-0.05698 0.02804,-0.01066 0.06235,0.0091 0.106387,0.05698 z"
       id="path2971"
       style="stroke-width:0.103005" /><path
       fill="#155182"
       opacity="1"
       stroke="none"
       d="m -27.691341,18.485759 c -0.02722,0.01067 -0.06392,-0.0076 -0.106501,-0.05683 0.02841,-0.01067 0.06273,0.0091 0.106501,0.05683 z"
       id="path2973"
       style="stroke-width:0.103005" /><path
       fill="#155182"
       opacity="1"
       stroke="none"
       d="m -50.546983,31.327575 c 0.01526,0.02636 0.0017,0.06232 -0.04215,0.107416 -0.01572,-0.02651 -0.0012,-0.06216 0.04215,-0.107416 z"
       id="path2975"
       style="stroke-width:0.103005" /><path
       fill="#155182"
       opacity="1"
       stroke="none"
       d="m -53.810195,34.846526 c 0.0062,0.02179 -0.0163,0.05424 -0.06916,0.09553 -0.0067,-0.0224 0.01684,-0.05363 0.06916,-0.09553 z"
       id="path2977"
       style="stroke-width:0.103005" /><path
       fill="#155182"
       opacity="1"
       stroke="none"
       d="m -54.143285,35.236104 c 0.01428,0.02544 1.9e-5,0.0611 -0.04387,0.106502 -0.01464,-0.0256 3.18e-4,-0.06095 0.04387,-0.106502 z"
       id="path2979"
       style="stroke-width:0.103005" /><path
       fill="#155182"
       opacity="1"
       stroke="none"
       d="m -30.353445,15.892963 c -0.02305,0.0061 -0.05705,-0.01219 -0.09944,-0.06018 0.0239,-0.0076 0.0562,0.01371 0.09944,0.06018 z"
       id="path2981"
       style="stroke-width:0.103005" /><path
       fill="#155182"
       opacity="1"
       stroke="none"
       d="m -23.33781,36.469774 c -0.006,-0.02133 0.01656,-0.05302 0.06888,-0.09386 0.0064,0.02179 -0.01693,0.05257 -0.06888,0.09386 z"
       id="path2983"
       style="stroke-width:0.103005" /><path
       fill="#155182"
       opacity="1"
       stroke="none"
       d="m -23.103813,36.39734 c 0.02604,-0.01371 0.07,0.003 0.129609,0.0518 -0.0268,0.01371 -0.06925,-0.003 -0.129609,-0.0518 z"
       id="path2985"
       style="stroke-width:0.103005" /><path
       fill="#155182"
       opacity="1"
       stroke="none"
       d="m -23.445346,36.571004 c -0.0063,-0.01996 0.01437,-0.05226 0.06387,-0.09508 0.0069,0.02057 -0.01494,0.05165 -0.06387,0.09508 z"
       id="path2987"
       style="stroke-width:0.103005" /><path
       fill="#155182"
       opacity="1"
       stroke="none"
       d="m -18.86816,32.378896 c -0.01404,-0.02651 0.0011,-0.06232 0.04728,-0.106349 0.01467,0.02682 -0.0017,0.06201 -0.04728,0.106349 z"
       id="path2989"
       style="stroke-width:0.103005" /><path
       fill="#155182"
       opacity="1"
       stroke="none"
       d="m -18.778545,32.267336 c -0.01103,-0.0224 0.0053,-0.05607 0.04942,-0.100255 0.01118,0.0227 -0.0054,0.05592 -0.04942,0.100255 z"
       id="path2991"
       style="stroke-width:0.103005" /><path
       fill="#155182"
       opacity="1"
       stroke="none"
       d="m -53.70507,34.745814 c 0.0077,0.02194 -0.01259,0.05455 -0.06264,0.09553 -0.0083,-0.0227 0.01323,-0.05379 0.06264,-0.09553 z"
       id="path2993"
       style="stroke-width:0.103005" /><path
       fill="#155182"
       opacity="1"
       stroke="none"
       d="m -50.335848,31.027282 c 0.01535,0.02651 0.0018,0.06216 -0.04186,0.107111 -0.01574,-0.02651 -0.0014,-0.06232 0.04186,-0.107111 z"
       id="path2995"
       style="stroke-width:0.103005" /><path
       fill="#155182"
       opacity="1"
       stroke="none"
       d="m -30.249366,15.994483 c -0.02216,0.0061 -0.05566,-0.01371 -0.09832,-0.06034 0.02288,-0.0076 0.05494,0.01371 0.09832,0.06034 z"
       id="path2997"
       style="stroke-width:0.103005" /><path
       fill="#155182"
       opacity="1"
       stroke="none"
       d="m -30.139969,16.094966 c -0.02169,0.0061 -0.05645,-0.01219 -0.101959,-0.05927 0.02246,-0.0076 0.05569,0.01371 0.101959,0.05927 z"
       id="path2999"
       style="stroke-width:0.103005" /><path
       fill="#155182"
       opacity="1"
       stroke="none"
       d="m -20.409686,25.522184 c -0.01861,0.01219 -0.04242,0.01219 -0.04914,-0.0061 0.01708,-0.01752 0.04394,-0.0061 0.04914,0.0061 z"
       id="path3001"
       style="stroke-width:0.103005" /><path
       fill="#155182"
       opacity="1"
       stroke="none"
       d="m -21.582464,38.297158 c 0.02411,-0.0061 0.0564,0.01645 0.09238,0.06811 -0.02561,0.0061 -0.05491,-0.01707 -0.09238,-0.06811 z"
       id="path3003"
       style="stroke-width:0.103005" /><path
       fill="#155182"
       opacity="1"
       stroke="none"
       d="m -53.695256,38.411918 c 0.02803,-0.01067 0.06545,0.0061 0.108047,0.05485 -0.02944,0.01219 -0.06405,-0.0076 -0.108047,-0.05485 z"
       id="path3005"
       style="stroke-width:0.103005" /><path
       fill="#155182"
       opacity="1"
       stroke="none"
       d="m -20.476957,25.478578 c -0.03331,0.01524 -0.07117,0.0015 -0.108435,-0.04251 0.03503,-0.0163 0.06945,-0.0011 0.108435,0.04251 z"
       id="path3007"
       style="stroke-width:0.103005" /><path
       fill="#155182"
       opacity="1"
       stroke="none"
       d="m -19.843472,33.366546 c -0.0067,-0.02027 0.01347,-0.05318 0.06286,-0.09614 0.0074,0.02118 -0.01418,0.05226 -0.06286,0.09614 z"
       id="path3009"
       style="stroke-width:0.103005" /><path
       fill="#155182"
       opacity="1"
       stroke="none"
       d="m -19.310178,32.866687 c -0.0077,-0.02209 0.01232,-0.05485 0.06245,-0.09568 0.0085,0.02301 -0.01304,0.05409 -0.06245,0.09568 z"
       id="path3011"
       style="stroke-width:0.103005" /><path
       fill="#155182"
       opacity="1"
       stroke="none"
       d="m -19.416052,32.966881 c -0.0077,-0.02209 0.01232,-0.05485 0.06241,-0.09568 0.0085,0.02301 -0.01304,0.05409 -0.06241,0.09568 z"
       id="path3013"
       style="stroke-width:0.103005" /><path
       fill="#155182"
       opacity="1"
       stroke="none"
       d="m -51.824286,32.923367 c 0.01464,0.02971 -5.3e-4,0.06567 -0.04908,0.104673 -0.01583,-0.03078 0.0017,-0.06445 0.04908,-0.104673 z"
       id="path3015"
       style="stroke-width:0.103005" /><path
       fill="#155182"
       opacity="1"
       stroke="none"
       d="m -19.52344,33.065232 c -0.0073,-0.02179 0.01332,-0.05409 0.06391,-0.09416 0.0079,0.0227 -0.01404,0.05317 -0.06391,0.09416 z"
       id="path3017"
       style="stroke-width:0.103005" /><path
       fill="#155182"
       opacity="1"
       stroke="none"
       d="m -51.922894,33.027827 c 0.01315,0.02712 -0.0033,0.06293 -0.05194,0.105283 -0.014,-0.02788 0.0042,-0.06232 0.05194,-0.105283 z"
       id="path3019"
       style="stroke-width:0.103005" /><path
       fill="#155182"
       opacity="1"
       stroke="none"
       d="m -19.630079,33.164619 c -0.0072,-0.02133 0.01318,-0.05348 0.06298,-0.09416 0.0077,0.02209 -0.0139,0.05272 -0.06298,0.09416 z"
       id="path3021"
       style="stroke-width:0.103005" /><path
       fill="#155182"
       opacity="1"
       stroke="none"
       d="m -19.205181,32.765869 c -0.0063,-0.02194 0.01606,-0.05439 0.06877,-0.09584 0.0069,0.0224 -0.01659,0.05378 -0.06877,0.09584 z"
       id="path3023"
       style="stroke-width:0.103005" /><path
       fill="#155182"
       opacity="1"
       stroke="none"
       d="m -19.736763,33.263716 c -0.0069,-0.02118 0.01361,-0.05302 0.06347,-0.09325 0.0074,0.02194 -0.01433,0.05226 -0.06347,0.09325 z"
       id="path3025"
       style="stroke-width:0.103005" /><path
       fill="#155182"
       opacity="1"
       stroke="none"
       d="m -30.457865,15.791626 c -0.02315,0.0076 -0.05761,-0.01219 -0.100857,-0.05896 0.024,-0.0076 0.05679,0.01219 0.100857,0.05896 z"
       id="path3027"
       style="stroke-width:0.103005" /><path
       fill="#155182"
       opacity="1"
       stroke="none"
       d="m -52.327634,33.443855 c 0.0079,0.02209 -0.01212,0.0547 -0.06154,0.09599 -0.0084,-0.0227 0.01267,-0.05394 0.06154,-0.09599 z"
       id="path3029"
       style="stroke-width:0.103005" /><path
       fill="#155182"
       opacity="1"
       stroke="none"
       d="m -52.43239,33.545877 c 0.0073,0.02133 -0.01298,0.05363 -0.06258,0.09431 -0.0079,-0.02209 0.0136,-0.05287 0.06258,-0.09431 z"
       id="path3031"
       style="stroke-width:0.103005" /><path
       fill="#155182"
       opacity="1"
       stroke="none"
       d="m -52.537612,33.646574 c 0.0065,0.02118 -0.0149,0.05317 -0.06553,0.09446 -0.0069,-0.02164 0.01535,-0.05272 0.06553,-0.09446 z"
       id="path3033"
       style="stroke-width:0.103005" /><path
       fill="#155182"
       opacity="1"
       stroke="none"
       d="m -52.747771,33.846977 c 0.0052,0.0195 -0.01665,0.0515 -0.06757,0.0937 -0.0059,-0.02026 0.01732,-0.05074 0.06757,-0.0937 z"
       id="path3035"
       style="stroke-width:0.103005" /><path
       fill="#155182"
       opacity="1"
       stroke="none"
       d="m -52.958778,34.048402 c 0.0045,0.01844 -0.01751,0.04997 -0.06797,0.09233 -0.0051,-0.0192 0.01817,-0.04921 0.06797,-0.09233 z"
       id="path3037"
       style="stroke-width:0.103005" /><path
       fill="#155182"
       opacity="1"
       stroke="none"
       d="m -53.491458,34.542912 c 0.0072,0.02072 -0.01312,0.05439 -0.06323,0.09812 -0.008,-0.02179 0.01392,-0.05348 0.06323,-0.09812 z"
       id="path3039"
       style="stroke-width:0.103005" /><path
       fill="#155182"
       opacity="1"
       stroke="none"
       d="m -53.598917,34.645925 c 0.0076,0.02194 -0.01274,0.05455 -0.06284,0.09523 -0.0082,-0.0227 0.01337,-0.05363 0.06284,-0.09523 z"
       id="path3041"
       style="stroke-width:0.103005" /><path
       fill="#155182"
       opacity="1"
       stroke="none"
       d="m -30.668284,15.590385 c -0.02365,0.0076 -0.05832,-0.01219 -0.101172,-0.05988 0.0246,-0.0076 0.05738,0.01219 0.101172,0.05988 z"
       id="path3043"
       style="stroke-width:0.103005" /><path
       fill="#155182"
       opacity="1"
       stroke="none"
       d="m -52.642621,39.422437 c 0.03102,-0.01371 0.06918,0.0015 0.108371,0.04876 -0.03305,0.01371 -0.06714,-0.003 -0.108371,-0.04876 z"
       id="path3045"
       style="stroke-width:0.103005" /><path
       fill="#155182"
       opacity="1"
       stroke="none"
       d="m -52.537489,39.525526 c 0.03186,-0.01371 0.07,3.04e-4 0.108985,0.04632 -0.03368,0.01524 -0.06818,-0.0015 -0.108985,-0.04632 z"
       id="path3047"
       style="stroke-width:0.103005" /><path
       fill="#155182"
       opacity="1"
       stroke="none"
       d="m -22.722349,23.301962 c -0.024,0.0076 -0.05894,-0.01219 -0.101859,-0.05973 0.02498,-0.0076 0.05795,0.01219 0.101859,0.05973 z"
       id="path3049"
       style="stroke-width:0.103005" /><path
       fill="#155182"
       opacity="1"
       stroke="none"
       d="m -22.827046,23.200732 c -0.02431,0.0076 -0.05961,-0.01067 -0.103034,-0.05866 0.02527,-0.0091 0.05865,0.01219 0.103034,0.05866 z"
       id="path3051"
       style="stroke-width:0.103005" /><path
       fill="#155182"
       opacity="1"
       stroke="none"
       d="m -52.431807,39.625765 c 0.03191,-0.01371 0.07006,1.98e-4 0.108752,0.04617 -0.03381,0.01524 -0.06816,-0.0013 -0.108752,-0.04617 z"
       id="path3053"
       style="stroke-width:0.103005" /><path
       fill="#155182"
       opacity="1"
       stroke="none"
       d="m -22.932974,23.100629 c -0.02435,0.0076 -0.05961,-0.01067 -0.103006,-0.05881 0.02529,-0.0091 0.05868,0.01219 0.103006,0.05881 z"
       id="path3055"
       style="stroke-width:0.103005" /><path
       fill="#155182"
       opacity="1"
       stroke="none"
       d="m -23.038681,23.000283 c -0.02438,0.0076 -0.0596,-0.01067 -0.102834,-0.05927 0.02533,-0.0091 0.05865,0.01219 0.102834,0.05927 z"
       id="path3057"
       style="stroke-width:0.103005" /><path
       fill="#155182"
       opacity="1"
       stroke="none"
       d="m -20.73075,39.697361 c 0.02516,-0.0046 0.05485,0.01874 0.0852,0.07131 -0.02646,0.0046 -0.05357,-0.01889 -0.0852,-0.07131 z"
       id="path3059"
       style="stroke-width:0.103005" /><path
       fill="#155182"
       opacity="1"
       stroke="none"
       d="m -30.563624,15.691508 c -0.02337,0.0076 -0.05776,-0.01219 -0.100585,-0.05988 0.02424,-0.0076 0.0569,0.01219 0.100585,0.05988 z"
       id="path3061"
       style="stroke-width:0.103005" /><path
       fill="#155182"
       opacity="1"
       stroke="none"
       d="m -23.665047,22.391028 c -0.02738,0.01067 -0.06445,-0.0076 -0.107389,-0.05607 0.02864,-0.01066 0.06318,0.0091 0.107389,0.05607 z"
       id="path3063"
       style="stroke-width:0.103005" /><path
       fill="#155182"
       opacity="1"
       stroke="none"
       d="m -30.772801,15.489155 c -0.02408,0.0076 -0.05908,-0.01067 -0.102432,-0.05881 0.02494,-0.0091 0.05821,0.01219 0.102432,0.05881 z"
       id="path3065"
       style="stroke-width:0.103005" /><path
       fill="#155182"
       opacity="1"
       stroke="none"
       d="m -23.770252,22.290514 c -0.02772,0.01066 -0.06478,-0.0076 -0.106543,-0.05668 0.02927,-0.01067 0.06324,0.0091 0.106543,0.05668 z"
       id="path3067"
       style="stroke-width:0.103005" /><path
       fill="#155182"
       opacity="1"
       stroke="none"
       d="m -23.874277,22.187379 c -0.02847,0.01066 -0.06597,-0.0061 -0.108378,-0.05394 0.02986,-0.01219 0.0646,0.0076 0.108378,0.05394 z"
       id="path3069"
       style="stroke-width:0.103005" /><path
       fill="#155182"
       opacity="1"
       stroke="none"
       d="m -30.878819,15.389037 c -0.02403,0.0076 -0.05908,-0.01067 -0.102819,-0.0579 0.0248,-0.0091 0.05831,0.01066 0.102819,0.0579 z"
       id="path3071"
       style="stroke-width:0.103005" /><path
       fill="#155182"
       opacity="1"
       stroke="none"
       d="m -50.18513,41.801696 c 0.02089,-0.0046 0.05558,0.01661 0.101007,0.06628 -0.02192,0.0061 -0.05455,-0.01737 -0.101007,-0.06628 z"
       id="path3073"
       style="stroke-width:0.103005" /><path
       fill="#155182"
       opacity="1"
       stroke="none"
       d="m -49.870647,42.10304 c 0.02156,-0.0061 0.05747,0.01219 0.104738,0.05896 -0.02256,0.0076 -0.05647,-0.01219 -0.104738,-0.05896 z"
       id="path3075"
       style="stroke-width:0.103005" /><path
       fill="#155182"
       opacity="1"
       stroke="none"
       d="m -49.759993,42.203782 c 0.02294,-0.0061 0.05688,0.01219 0.09971,0.06064 -0.02364,0.0076 -0.05618,-0.01371 -0.09971,-0.06064 z"
       id="path3077"
       style="stroke-width:0.103005" /><path
       fill="#155182"
       opacity="1"
       stroke="none"
       d="m -22.618245,23.403466 c -0.02345,0.0076 -0.05802,-0.01219 -0.10077,-0.06018 0.02443,-0.0076 0.05705,0.01219 0.10077,0.06018 z"
       id="path3079"
       style="stroke-width:0.103005" /><path
       fill="#155182"
       opacity="1"
       stroke="none"
       d="m -22.513327,23.504392 c -0.02318,0.0076 -0.05756,-0.01219 -0.100484,-0.05973 0.02408,-0.0076 0.05669,0.01219 0.100484,0.05973 z"
       id="path3081"
       style="stroke-width:0.103005" /><path
       fill="#155182"
       opacity="1"
       stroke="none"
       d="m -52.74781,39.321831 c 0.03075,-0.01371 0.06889,0.0015 0.109133,0.04921 -0.03251,0.01371 -0.06713,-0.003 -0.109133,-0.04921 z"
       id="path3083"
       style="stroke-width:0.103005" /><path
       fill="#155182"
       opacity="1"
       stroke="none"
       d="m -26.500674,39.291252 c -0.01074,-0.02682 0.0086,-0.06186 0.0608,-0.09934 0.01175,0.02864 -0.0096,0.05988 -0.0608,0.09934 z"
       id="path3085"
       style="stroke-width:0.103005" /><path
       fill="#155182"
       opacity="1"
       stroke="none"
       d="m -52.853285,39.220464 c 0.03043,-0.01219 0.06852,0.003 0.108798,0.05028 -0.03225,0.01371 -0.0667,-0.0046 -0.108798,-0.05028 z"
       id="path3087"
       style="stroke-width:0.103005" /><path
       fill="#155182"
       opacity="1"
       stroke="none"
       d="m -22.407633,23.604692 c -0.02311,0.0076 -0.05748,-0.01219 -0.100627,-0.05927 0.02394,-0.0076 0.05666,0.01219 0.100627,0.05927 z"
       id="path3089"
       style="stroke-width:0.103005" /><path
       fill="#155182"
       opacity="1"
       stroke="none"
       d="m -52.95806,39.118091 c 0.02982,-0.01219 0.06775,0.0046 0.108383,0.05211 -0.03163,0.01371 -0.06595,-0.0061 -0.108383,-0.05211 z"
       id="path3091"
       style="stroke-width:0.103005" /><path
       fill="#155182"
       opacity="1"
       stroke="none"
       d="m -22.297496,23.705907 c -0.02208,0.0076 -0.05805,-0.01219 -0.104696,-0.05942 0.02315,-0.0076 0.05696,0.01219 0.104696,0.05942 z"
       id="path3093"
       style="stroke-width:0.103005" /><path
       fill="#155182"
       opacity="1"
       stroke="none"
       d="m -53.06347,39.01779 c 0.02963,-0.01219 0.06757,0.0046 0.108991,0.05196 -0.03125,0.01371 -0.06596,-0.0046 -0.108991,-0.05196 z"
       id="path3095"
       style="stroke-width:0.103005" /><path
       fill="#155182"
       opacity="1"
       stroke="none"
       d="m -53.168376,38.915615 c 0.02929,-0.01067 0.06696,0.0061 0.10806,0.05363 -0.03094,0.01219 -0.0653,-0.0061 -0.10806,-0.05363 z"
       id="path3097"
       style="stroke-width:0.103005" /><path
       fill="#155182"
       opacity="1"
       stroke="none"
       d="m -53.273824,38.815391 c 0.02908,-0.01219 0.06677,0.0046 0.108706,0.05318 -0.03054,0.01219 -0.06531,-0.0061 -0.108706,-0.05318 z"
       id="path3099"
       style="stroke-width:0.103005" /><path
       fill="#155182"
       opacity="1"
       stroke="none"
       d="m -20.582768,25.37753 c -0.03318,0.01615 -0.07106,0.003 -0.108377,-0.04022 0.03493,-0.01706 0.0693,-0.003 0.108377,0.04022 z"
       id="path3101"
       style="stroke-width:0.103005" /><path
       fill="#155182"
       opacity="1"
       stroke="none"
       d="m -53.379492,38.714725 c 0.02886,-0.01067 0.06654,0.0061 0.108474,0.05348 -0.03038,0.01219 -0.06503,-0.0061 -0.108474,-0.05348 z"
       id="path3103"
       style="stroke-width:0.103005" /><path
       fill="#155182"
       opacity="1"
       stroke="none"
       d="m -53.485199,38.614561 c 0.02878,-0.01067 0.06644,0.0061 0.108513,0.05348 -0.03026,0.01219 -0.06495,-0.0061 -0.108513,-0.05348 z"
       id="path3105"
       style="stroke-width:0.103005" /><path
       fill="#155182"
       opacity="1"
       stroke="none"
       d="m -53.589788,38.512158 c 0.02825,-0.01067 0.06564,0.0076 0.107227,0.05546 -0.0299,0.01219 -0.064,-0.0076 -0.107227,-0.05546 z"
       id="path3107"
       style="stroke-width:0.103005" /><path
       fill="#fefeff"
       opacity="1"
       stroke="none"
       d="m -59.971877,46.125628 c -0.904024,-1.352361 -1.815193,-2.65909 -2.656466,-4.004869 -0.466931,-0.746945 -0.358056,-1.445896 0.151931,-1.938213 0.435565,-0.420476 1.220163,-0.432711 1.693843,-0.03382 0.34018,0.286427 0.560409,0.604577 0.733697,1.033007 0.285212,0.705138 0.755482,1.352605 1.208484,1.985522 0.610892,0.853494 1.228784,1.711207 1.93718,2.49117 0.72405,0.79721 1.541143,1.522917 2.355592,2.241309 0.564811,0.498198 1.181061,0.947395 1.798591,1.388091 0.537586,0.383635 1.090863,0.754015 1.670177,1.077436 0.801369,0.447415 1.097485,1.063831 0.755395,1.719816 -0.349074,0.669377 -1.2162,0.916724 -2.003398,0.513068 -2.140415,-1.097595 -4.044706,-2.490317 -5.664497,-4.213393 -0.678441,-0.721714 -1.307153,-1.485222 -1.980529,-2.259059 z"
       id="path3109"
       style="stroke-width:0.103005" /><path
       fill="#fefeff"
       opacity="1"
       stroke="none"
       d="m -63.765237,52.019724 c -1.111798,-1.33621 -2.229464,-2.624746 -3.272665,-3.965086 -0.623764,-0.801431 -0.377177,-1.675691 0.719011,-2.128865 0.42582,-0.176025 0.882504,-0.01371 1.178409,0.332319 0.557558,0.652709 1.066006,1.342793 1.618046,1.999936 0.473835,0.564049 0.961277,1.120098 1.476487,1.650322 0.683511,0.703446 1.361927,1.418426 2.112864,2.054162 0.740728,0.627097 1.555047,1.180038 2.362927,1.731669 0.8665,0.591657 0.94321,1.503308 0.138915,2.090607 -0.427344,0.31207 -1.151395,0.329836 -1.687795,-0.02697 -0.864107,-0.574897 -1.732253,-1.151912 -2.536874,-1.796973 -0.737144,-0.590956 -1.392476,-1.273177 -2.109325,-1.941062 z"
       id="path3111"
       style="stroke-width:0.103005" /></g><metadata
     id="metadata7438"><rdf:RDF><cc:Work
         rdf:about=""><dc:title>SonoMyo Logo</dc:title></cc:Work></rdf:RDF></metadata></svg>
